<?xml version="1.0" encoding="UTF-8"?><svg id="_レイヤー_1" xmlns="http://www.w3.org/2000/svg" viewBox="0 0 360.09 232.96"><defs><style>.cls-1{stroke-width:.43px;}.cls-1,.cls-2{fill:none;stroke:#231815;stroke-miterlimit:10;}.cls-2{stroke-width:.14px;}.cls-3{fill:#231815;}</style></defs><line class="cls-2" x1="77.52" y1="14.25" x2="34.73" y2="14.25"/><polyline class="cls-2" points="34.73 27.51 9.59 27.51 9.59 14.25 34.73 14.25"/><polyline class="cls-2" points="34.73 14.25 77.52 14.25 77.52 27.51 34.73 27.51"/><rect class="cls-2" x="77.52" y="14.25" width="192.13" height="13.25"/><rect class="cls-2" x="269.65" y="14.25" width="80.02" height="13.25"/><rect class="cls-2" x="9.59" y="27.51" width="25.14" height="13.25"/><rect class="cls-2" x="34.73" y="27.51" width="42.79" height="13.25"/><rect class="cls-2" x="77.52" y="27.51" width="192.13" height="13.25"/><rect class="cls-2" x="269.65" y="27.51" width="80.02" height="13.25"/><rect class="cls-2" x="9.59" y="40.76" width="25.14" height="13.25"/><rect class="cls-2" x="34.73" y="40.76" width="42.79" height="13.25"/><rect class="cls-2" x="77.52" y="40.76" width="192.13" height="13.25"/><rect class="cls-2" x="269.65" y="40.76" width="80.02" height="13.25"/><rect class="cls-2" x="9.59" y="54.01" width="25.14" height="13.25"/><rect class="cls-2" x="34.73" y="54.01" width="42.79" height="13.25"/><rect class="cls-2" x="77.52" y="54.01" width="192.13" height="13.25"/><rect class="cls-2" x="269.65" y="54.01" width="80.02" height="13.25"/><rect class="cls-2" x="9.59" y="67.26" width="25.14" height="13.25"/><rect class="cls-2" x="34.73" y="67.26" width="42.79" height="13.25"/><rect class="cls-2" x="77.52" y="67.26" width="192.13" height="13.25"/><rect class="cls-2" x="269.65" y="67.26" width="80.02" height="13.25"/><polyline class="cls-2" points="34.73 133.53 9.59 133.53 9.59 120.27 34.73 120.27"/><polyline class="cls-2" points="34.73 120.27 77.52 120.27 77.52 133.53 34.73 133.53"/><rect class="cls-2" x="77.52" y="120.27" width="192.13" height="13.25"/><rect class="cls-2" x="269.65" y="120.27" width="80.02" height="13.25"/><rect class="cls-2" x="9.59" y="133.53" width="25.14" height="13.25"/><rect class="cls-2" x="34.73" y="133.53" width="42.79" height="13.25"/><rect class="cls-2" x="77.52" y="133.53" width="192.13" height="13.25"/><rect class="cls-2" x="269.65" y="133.53" width="80.02" height="13.25"/><rect class="cls-2" x="9.59" y="146.78" width="25.14" height="13.25"/><rect class="cls-2" x="34.73" y="146.78" width="42.79" height="13.25"/><rect class="cls-2" x="269.65" y="146.78" width="80.02" height="13.25"/><rect class="cls-2" x="9.59" y="160.03" width="25.14" height="13.25"/><rect class="cls-2" x="77.52" y="160.03" width="192.13" height="13.25"/><rect class="cls-2" x="269.65" y="160.03" width="80.02" height="13.25"/><line class="cls-2" x1="9.59" y1="173.28" x2="34.73" y2="173.28"/><line class="cls-2" x1="34.73" y1="186.54" x2="9.59" y2="186.54"/><line class="cls-2" x1="77.52" y1="186.54" x2="34.73" y2="186.54"/><line class="cls-2" x1="34.73" y1="173.28" x2="77.52" y2="173.28"/><line class="cls-2" x1="269.65" y1="186.54" x2="77.52" y2="186.54"/><line class="cls-2" x1="77.52" y1="173.28" x2="269.65" y2="173.28"/><line class="cls-2" x1="349.67" y1="186.54" x2="269.65" y2="186.54"/><line class="cls-2" x1="269.65" y1="173.28" x2="349.67" y2="173.28"/><polyline class="cls-2" points="34.73 199.79 9.59 199.79 9.59 186.54 34.73 186.54"/><line class="cls-2" x1="77.52" y1="199.79" x2="34.73" y2="199.79"/><line class="cls-2" x1="34.73" y1="186.54" x2="77.52" y2="186.54"/><line class="cls-2" x1="269.65" y1="199.79" x2="77.52" y2="199.79"/><line class="cls-2" x1="77.52" y1="186.54" x2="269.65" y2="186.54"/><rect class="cls-2" x="9.59" y="199.79" width="25.14" height="13.25"/><rect class="cls-2" x="77.52" y="199.79" width="192.13" height="13.25"/><polyline class="cls-2" points="269.65 186.54 349.67 186.54 349.67 199.79 269.65 199.79"/><rect class="cls-2" x="34.73" y="199.79" width="42.79" height="13.25"/><rect class="cls-2" x="34.73" y="213.04" width="42.79" height="13.25"/><rect class="cls-2" x="269.65" y="199.79" width="80.02" height="13.25"/><rect class="cls-2" x="9.59" y="213.04" width="25.14" height="13.25"/><rect class="cls-2" x="77.52" y="213.04" width="192.13" height="13.25"/><rect class="cls-2" x="269.65" y="213.04" width="80.02" height="13.25"/><rect class="cls-2" x="34.73" y="173.28" width="42.79" height="13.25"/><rect class="cls-2" x="77.52" y="173.28" width="192.13" height="13.25"/><rect class="cls-2" x="269.65" y="173.28" width="80.02" height="13.25"/><rect class="cls-2" x="34.73" y="186.54" width="42.79" height="13.25"/><rect class="cls-2" x="77.52" y="186.54" width="192.13" height="13.25"/><rect class="cls-2" x="269.65" y="186.54" width="80.02" height="13.25"/><rect class="cls-1" x="9.59" y="14.25" width="340.08" height="66.26"/><rect class="cls-1" x="9.59" y="120.27" width="340.08" height="106.02"/><path class="cls-3" d="m22.04,9.7l-.13.27-5.68-2.86,5.68-2.86.13.27-5.15,2.59,5.15,2.59Z"/><path class="cls-3" d="m28.08,5.18h1.43l.23-.3.53.37c.18.13.1.22-.23.27v.86c-.29.27-.43.28-.43.03v-.13h-1.53v.76h1.66l.23-.3.53.37c.18.13.1.22-.23.27v.56h.47l.43-.43.53.4c.13.11.13.19,0,.23h-1.43v1.26c-.29.27-.43.28-.43.03v-.23h-1.76v.8c0,.27-.08.46-.23.6-.13.11-.27.18-.4.2-.13.02-.2-.04-.2-.2,0-.11-.06-.18-.17-.2l-.56-.13c-.11-.04-.11-.09,0-.13h.83c.2,0,.3-.1.3-.3v-.63h-2.49v-.2h2.49v-.86h-3.62v-.2h3.62v-.7h-2.39v-.2h2.39v-.76h-1.69v.23c-.29.27-.43.28-.43.03v-1.63l.5.27h1.63v-.66h-3.59v-.2h3.59v-1.06l.6.1c.24.09.19.18-.17.27v.7h2.52l.43-.43.53.4c.13.11.13.19,0,.23h-3.49v.66Zm-2.13.2v.7h1.69v-.7h-1.69Zm3.65.7v-.7h-1.53v.7h1.53Zm.23,1.86v-.7h-1.76v.7h1.76Zm0,.2h-1.76v.86h1.76v-.86Z"/><path class="cls-3" d="m33.26,6.51h1.83c-.09-.04-.13-.15-.13-.33,0-.35-.14-.69-.43-1h-1.93v-.2h2.72v-1.69l.56.1c.18.11.13.19-.13.23v1.36h.83v-1.69l.56.1c.18.11.13.19-.13.23v1.36h.56l.93-1.46.4.33c.18.16.1.22-.23.2l-.93.93h1.3l.43-.43.53.4c.13.11.13.19,0,.23h-2.49l.33.3c.09.13,0,.18-.27.13l-.63.9h1.69l.43-.43.53.4c.13.11.13.19,0,.23h-3.16v.73h1.63l.43-.43.53.4c.13.11.13.19,0,.23h-2.59v.73h2.62l.43-.43.53.4c.13.11.13.19,0,.23h-3.49c1.06.91,2.29,1.44,3.69,1.59-.38.18-.58.37-.6.56-1.46-.51-2.52-1.2-3.19-2.06v2.03c-.29.27-.43.28-.43.03v-1.96c-1.02.95-2.13,1.67-3.32,2.16-.13.04-.16,0-.07-.13,1.17-.6,2.16-1.34,2.96-2.23h-2.96v-.2h3.39v-.73h-2.29v-.2h2.29v-.73h-2.76v-.2Zm.13-2.72c-.09-.09-.07-.12.07-.1.73.22,1.1.5,1.1.83,0,.18-.07.27-.2.27-.09,0-.16-.07-.2-.2-.11-.29-.37-.55-.76-.8Zm1.89,2.72h1.46l.5-1.33h-2.56c.49.31.73.66.73,1.06,0,.13-.04.22-.13.27Z"/><path class="cls-3" d="m41.07,4.98h2.49l.5-.5.63.46c.13.11.13.19,0,.23h-3.62v-.2Zm.37,1.03h1.83l.43-.43.53.4c.13.11.13.19,0,.23h-2.79v-.2Zm0,.96h1.93l.43-.43.53.4c.13.11.13.19,0,.23h-2.89v-.2Zm.03-3.06h1.63l.43-.43.53.4c.13.11.13.19,0,.23h-2.59v-.2Zm2.03,4.19l.2-.23.43.3c.13.11.09.19-.13.23v1.83c-.29.27-.43.28-.43.03v-.2h-1.46v.6c-.29.27-.43.28-.43.03v-2.82l.5.23h1.33Zm-1.4.2v1.56h1.46v-1.56h-1.46Zm4.15-1.83v-3.12l.56.1c.18.11.13.19-.13.23v2.79h.83l.5-.5.63.46c.13.11.13.19,0,.23h-1.96v3.89c-.29.27-.43.28-.43.03v-3.92h-1.69v-.2h1.69Z"/><path class="cls-3" d="m53.43,4.25v1.26h1.13l.2-.27.47.33c.13.11.09.19-.13.23v3.29c-.29.27-.43.28-.43.03v-.43h-2.79v.46c-.29.27-.43.28-.43.03v-3.95l.5.27h1.06v-1.26h-3.42v-.2h6.51l.5-.5.63.46c.13.11.13.19,0,.23h-3.79Zm-3.35,6.41v-5.45l.6.1c.24.09.19.18-.17.27v4.15h5.61v-4.42l.6.1c.24.09.19.18-.17.27v4.88c-.29.27-.43.28-.43.03v-.66h-5.61v.7c-.29.27-.43.28-.43.03Zm1.79-3.69h1.13v-1.26h-1.13v1.26Zm0,1.53h1.13v-1.33h-1.13v1.33Zm1.56-1.53h1.23v-1.26h-1.23v1.26Zm0,1.53h1.23v-1.33h-1.23v1.33Z"/><path class="cls-3" d="m64.19,7.14v-.07l-5.12-2.56.13-.27,5.68,2.86-5.68,2.86-.13-.27,5.12-2.56Z"/><path class="cls-3" d="m22.04,116.02l-.13.27-5.68-2.86,5.68-2.86.13.27-5.15,2.59,5.15,2.59Z"/><path class="cls-3" d="m26.22,111.33l.5.33c.22.2.14.28-.23.23-.27.4-.53.73-.8,1l.27.13c.13.07.1.13-.1.2v3.85c-.29.27-.43.28-.43.03v-3.92c-.51.51-1.02.91-1.53,1.2-.13.02-.16-.02-.07-.13.97-.78,1.77-1.75,2.39-2.92Zm-.2-1.59l.43.33c.22.2.13.28-.27.23-.75.69-1.44,1.2-2.06,1.53-.13.02-.16-.02-.07-.13.78-.55,1.43-1.21,1.96-1.96Zm2.66,6.05c-.75.64-1.59,1.07-2.52,1.3-.11,0-.13-.04-.07-.13.91-.33,1.68-.81,2.33-1.43-.4-.49-.7-1.04-.9-1.66h-1.06v-.2h3.29l.3-.37.56.43c.13.16.01.21-.37.17-.31.55-.72,1.08-1.23,1.59.69.51,1.57.88,2.66,1.1-.42.11-.65.27-.7.46-.73-.2-1.49-.62-2.29-1.26Zm-.76-5.41v.86c0,1.02-.46,1.75-1.4,2.19-.13.02-.16-.02-.07-.13.69-.44,1.03-1.14,1.03-2.09v-1.3l.46.27h1.23l.2-.27.46.33c.13.11.09.19-.13.23v1.66c0,.09.04.13.13.13h.96c.2,0,.32-.08.37-.23l.2-.73s.08-.04.1,0v.73c0,.11.04.19.13.23.15.07.15.17,0,.3-.07.07-.27.1-.6.1h-1.33c-.27,0-.4-.13-.4-.4v-1.89h-1.36Zm-.2,3.49c.22.55.54,1.01.96,1.36.35-.35.7-.81,1.03-1.36h-1.99Z"/><path class="cls-3" d="m34.96,115.92l.6.37c.11.13-.04.18-.46.13-.89.46-1.77.76-2.66.9-.11,0-.12-.04-.03-.13,1.06-.31,1.92-.73,2.56-1.26Zm-.83-3.75h4.32l.2-.27.47.33c.13.11.09.19-.13.23v3.26c-.29.27-.43.28-.43.03v-.1h-4.48v.27c-.29.27-.43.28-.43.03v-4.09l.5.3Zm3.92-.76h-3.62v.17c-.29.27-.43.28-.43.03v-1.96l.5.33h3.46l.2-.27.46.33c.13.11.09.19-.13.23v1.26c-.29.27-.43.28-.43.03v-.17Zm-3.99.96v.93h4.48v-.93h-4.48Zm0,1.99h4.48v-.86h-4.48v.86Zm4.48,1.1v-.9h-4.48v.9h4.48Zm-4.12-5.28v1.03h3.62v-1.03h-3.62Zm2.72,5.85c-.07-.09-.04-.13.07-.13.84.11,1.53.3,2.06.57.4.2.6.42.6.66,0,.15-.06.23-.17.23s-.27-.1-.46-.3c-.47-.44-1.16-.79-2.09-1.03Z"/><path class="cls-3" d="m44.52,109.54l.73.3c.11.18,0,.23-.33.17.84,1.09,2.08,1.93,3.72,2.52-.27.09-.47.24-.6.47-1.46-.75-2.55-1.73-3.26-2.92-1.26,1.59-2.51,2.61-3.75,3.06-.11,0-.12-.04-.03-.13,1.46-.84,2.64-1.99,3.52-3.46Zm2.16,6.54c-.29-.29-.61-.57-.96-.83-.11-.09-.09-.12.07-.1.58.22,1.07.51,1.49.86.31.27.47.54.47.83,0,.22-.08.33-.23.33-.11,0-.21-.1-.3-.3-.07-.16-.2-.37-.4-.63l-4.52.46c-.13.42-.25.5-.37.23l-.33-.63,1.53-.03.66-1.89h-2.72v-.2h6.18l.43-.43.53.4c.13.11.13.19,0,.23h-3.85l-1,1.86,3.32-.17Zm-4.02-3.46h2.99l.37-.37.47.33c.13.11.13.19,0,.23h-3.82v-.2Z"/><path class="cls-3" d="m54.09,113.42c0,.22-.07.4-.2.53-.16.15-.34.23-.56.23s-.4-.07-.53-.2c-.16-.16-.23-.34-.23-.57s.07-.4.2-.53c.15-.15.34-.23.56-.23s.4.07.53.2c.15.16.23.34.23.56Z"/><path class="cls-3" d="m61.2,110.7l-.1.5h-2.39l-.13,2.29c.42-.46.85-.7,1.3-.7.33,0,.63.13.9.4.35.35.53.82.53,1.4s-.19,1.01-.56,1.36c-.31.31-.72.47-1.23.47-.42,0-.76-.12-1.03-.37-.27-.24-.4-.52-.4-.83,0-.15.04-.28.13-.37s.19-.13.3-.13c.09,0,.17.03.23.1s.1.16.1.27c0,.13-.03.23-.1.3-.07.09-.1.18-.1.27,0,.11.06.22.17.33.15.13.4.2.73.2s.6-.1.8-.3c.27-.24.4-.65.4-1.23s-.13-1-.4-1.26c-.18-.18-.39-.27-.63-.27-.38,0-.74.24-1.1.73l-.3-.03.17-3.12h2.72Z"/><path class="cls-3" d="m64.82,111.03c.22.22.4.52.53.9.2.55.3,1.09.3,1.59,0,.55-.1,1.1-.3,1.63-.15.4-.33.69-.53.86-.27.27-.55.4-.86.4s-.6-.13-.86-.4c-.22-.2-.41-.49-.56-.86-.2-.51-.3-1.05-.3-1.63s.1-1.11.3-1.59c.15-.38.34-.68.56-.9.27-.24.55-.37.86-.37s.6.12.86.37Zm-1.36.1c-.4.4-.6,1.2-.6,2.39s.2,2.03.6,2.42c.15.13.32.2.5.2s.34-.07.5-.2c.38-.38.56-1.18.56-2.42s-.19-2.01-.56-2.39c-.15-.13-.32-.2-.5-.2s-.34.07-.5.2Z"/><path class="cls-3" d="m75.09,110.34h-5.05v3.49c0,1.17-.45,2.29-1.36,3.36-.11.07-.15.03-.13-.1.71-1.06,1.06-2.1,1.06-3.12v-4.15l.5.33h4.88l.2-.27.46.33c.13.11.09.19-.13.23v5.81c0,.27-.08.46-.23.6-.13.11-.28.18-.43.2-.13.02-.2-.03-.2-.17s-.06-.21-.17-.23l-.53-.13c-.11-.04-.11-.09,0-.13h.83c.2,0,.3-.1.3-.3v-5.75Zm-.66,1.4h-1.79v1.1h1.2l.37-.37.46.33c.13.11.13.19,0,.23h-4.09v-.2h1.63v-1.1h-1.5v-.2h1.5v-.86l.6.1c.24.04.19.13-.17.27v.5h.96l.37-.37.47.33c.13.11.13.19,0,.23Zm-3.02,2.06h2.06l.2-.27.47.33c.13.11.09.19-.13.23v1.63c-.29.27-.43.28-.43.03v-.23h-2.23v.47c-.29.27-.43.28-.43.03v-2.56l.5.33Zm2.16,1.53v-1.33h-2.23v1.33h2.23Z"/><path class="cls-3" d="m80.87,114.69h-3.52v-.2h1.2v-2.19l.5.33h1.83v-1.63h-1.89c-.46.95-1.1,1.73-1.89,2.33-.09.02-.11-.01-.07-.1,1-1.08,1.63-2.26,1.89-3.52l.63.23c.29.13.22.22-.2.27-.09.2-.18.4-.27.6h4.19l.43-.43.53.4c.13.11.13.19,0,.23h-2.92v1.63h1.66l.43-.43.53.4c.13.11.13.19,0,.23h-2.62v1.66h2.39l.5-.5.63.46c.13.11.13.19,0,.23h-3.52v2.39c-.29.27-.43.28-.43.03v-2.42Zm-1.89-1.86v1.66h1.89v-1.66h-1.89Z"/><path class="cls-3" d="m89.6,114.79h-.13c-.4,1.13-1.61,1.9-3.62,2.33-.11-.02-.12-.07-.03-.13,1.75-.55,2.81-1.28,3.19-2.19h-3.06v-.2h3.12c.09-.31.14-.64.17-1h-2.03v-.2h2.03c.02-.38.03-.71.03-1h-2.29v-.2h2.29v-1.03l.56.1c.18.11.13.19-.13.23v.7h1.63l.43-.43.53.4c.13.11.13.19,0,.23h-2.59c0,.33-.01.66-.03,1h1.43l.43-.43.53.4c.13.11.13.19,0,.23h-2.39c-.02.38-.07.71-.13,1h2.66l.5-.5.63.46c.13.11.13.19,0,.23h-3.49c.86.93,1.98,1.48,3.36,1.66-.29.13-.49.31-.6.53-1.31-.42-2.3-1.15-2.99-2.19Zm2.66-3.92h-5.48c-.07.71-.25,1.06-.56,1.06-.16,0-.23-.09-.23-.27,0-.11.08-.24.23-.4.18-.22.31-.52.4-.9.04-.18.1-.18.17,0v.3h2.49v-1.06l.56.1c.18.11.13.19-.13.23v.73h2.49l.37-.37.6.6c.15.18.11.27-.13.27-.27,0-.48.03-.63.1l-.33.33c-.11.09-.15.08-.13-.03l.33-.7Z"/><path class="cls-3" d="m96.68,111.83c-.24.35-.51.7-.8,1.03l.2.07c.18.11.13.19-.13.23v3.82c-.29.27-.43.28-.43.03v-3.75c-.42.44-.9.82-1.43,1.13-.11,0-.13-.04-.07-.13.91-.71,1.74-1.71,2.49-2.99l.5.4c.11.18,0,.23-.33.17Zm-.3-1.59c-.64.69-1.37,1.27-2.19,1.76-.15.07-.2.03-.13-.1.89-.71,1.61-1.46,2.16-2.26l.4.37c.22.2.14.28-.23.23Zm3.72,2.23v3.79c0,.27-.08.46-.23.6-.13.11-.27.18-.4.2-.13.02-.2-.03-.2-.17,0-.11-.06-.19-.17-.23l-.6-.13c-.11-.04-.11-.09,0-.13h.86c.2,0,.3-.1.3-.3v-3.62h-2.76v-.2h3.95l.4-.4.53.37c.13.11.13.19,0,.23h-1.69Zm-2.59-2.03h2.89l.37-.37.46.33c.13.11.13.19,0,.23h-3.72v-.2Z"/><path class="cls-3" d="m104.22,115.72c.35-.35.71-.73,1.06-1.13h-2.49v-.2h2.62c.29-.38.58-.76.86-1.16v-1.5c-1,1.06-2.19,1.82-3.59,2.26-.15,0-.18-.04-.07-.13,1.51-.67,2.57-1.42,3.19-2.26h-2.96v-.2h3.42v-.96c-.97.13-1.89.21-2.76.23-.09-.04-.09-.09,0-.13,2.21-.27,3.73-.56,4.55-.9l.4.4c.11.2,0,.23-.33.1-.47.09-.94.18-1.43.27v1h2.43l.43-.43.53.4c.13.11.13.19,0,.23h-3.16c.86.86,1.95,1.36,3.26,1.5-.31.11-.53.27-.66.46-1.06-.38-2-1.02-2.82-1.93v1.53l-.17.1c.35.18.37.29.03.33-.22.27-.45.53-.7.8h3.29l.43-.43.53.4c.13.11.13.19,0,.23h-1.99c-.13.44-.4.84-.8,1.2,1.2.31,1.79.63,1.79.96,0,.13-.07.2-.2.2-.11,0-.25-.07-.43-.2-.4-.27-.88-.49-1.43-.66-.84.64-2.07.98-3.69,1.03-.09-.04-.09-.09,0-.13,1.64-.22,2.75-.58,3.32-1.06-.58-.2-1.17-.31-1.79-.33-.11.11-.22.21-.33.3-.4.07-.52.01-.37-.17Zm3.45-1.13h-1.89c-.27.29-.52.58-.76.86.62,0,1.26.07,1.93.2.29-.22.53-.58.73-1.06Z"/><path class="cls-3" d="m113.62,115.92l.6.37c.11.13-.04.18-.46.13-.89.46-1.77.76-2.66.9-.11,0-.12-.04-.03-.13,1.06-.31,1.92-.73,2.56-1.26Zm-.83-3.75h4.32l.2-.27.47.33c.13.11.09.19-.13.23v3.26c-.29.27-.43.28-.43.03v-.1h-4.48v.27c-.29.27-.43.28-.43.03v-4.09l.5.3Zm3.92-.76h-3.62v.17c-.29.27-.43.28-.43.03v-1.96l.5.33h3.46l.2-.27.46.33c.13.11.09.19-.13.23v1.26c-.29.27-.43.28-.43.03v-.17Zm-3.99.96v.93h4.48v-.93h-4.48Zm0,1.99h4.48v-.86h-4.48v.86Zm4.48,1.1v-.9h-4.48v.9h4.48Zm-4.12-5.28v1.03h3.62v-1.03h-3.62Zm2.72,5.85c-.07-.09-.04-.13.07-.13.84.11,1.53.3,2.06.57.4.2.6.42.6.66,0,.15-.06.23-.17.23s-.27-.1-.46-.3c-.47-.44-1.16-.79-2.09-1.03Z"/><path class="cls-3" d="m123.19,109.54l.73.3c.11.18,0,.23-.33.17.84,1.09,2.08,1.93,3.72,2.52-.27.09-.47.24-.6.47-1.46-.75-2.55-1.73-3.26-2.92-1.26,1.59-2.51,2.61-3.75,3.06-.11,0-.12-.04-.03-.13,1.46-.84,2.64-1.99,3.52-3.46Zm2.16,6.54c-.29-.29-.61-.57-.96-.83-.11-.09-.09-.12.07-.1.58.22,1.07.51,1.49.86.31.27.47.54.47.83,0,.22-.08.33-.23.33-.11,0-.21-.1-.3-.3-.07-.16-.2-.37-.4-.63l-4.52.46c-.13.42-.25.5-.37.23l-.33-.63,1.53-.03.66-1.89h-2.72v-.2h6.18l.43-.43.53.4c.13.11.13.19,0,.23h-3.85l-1,1.86,3.32-.17Zm-4.02-3.46h2.99l.37-.37.47.33c.13.11.13.19,0,.23h-3.82v-.2Z"/><path class="cls-3" d="m134.35,113.46v-.07l-5.12-2.56.13-.27,5.68,2.86-5.68,2.86-.13-.27,5.12-2.56Z"/><path class="cls-3" d="m21.58,25.35c-.13.02-.16-.01-.07-.1.73-.44,1.23-.89,1.49-1.33.33-.55.5-1.2.5-1.93v-3.72l.5.3h2.56l.2-.27.47.33c.13.11.09.19-.13.23v5.68c0,.24-.08.44-.23.6-.13.13-.3.2-.5.2-.09,0-.13-.08-.13-.23,0-.09-.06-.14-.17-.17l-.56-.13c-.11-.07-.11-.11,0-.13h.86c.2,0,.3-.1.3-.3v-1.86h-2.72c-.09.73-.39,1.35-.9,1.86-.42.42-.91.74-1.46.96Zm2.36-6.58v1.69h2.72v-1.69h-2.72Zm0,1.89v1.66h2.72v-1.66h-2.72Z"/><path class="cls-3" d="m32.24,19.04h2.99l.2-.27.46.33c.13.11.09.19-.13.23v5.31c-.29.27-.43.28-.43.03v-.6h-3.16v1c-.29.27-.43.28-.43.03v-6.44l.5.37Zm3.09.2h-3.16v2.09h3.16v-2.09Zm0,2.29h-3.16v2.36h3.16v-2.36Z"/><path class="cls-3" d="m45.99,18.11c-1.02,1-1.53,2.23-1.53,3.69s.51,2.69,1.53,3.69l-.17.17c-1.22-1.02-1.83-2.3-1.83-3.85s.61-2.83,1.83-3.85l.17.17Z"/><path class="cls-3" d="m48.38,19.11l.2-.27.46.33c.13.11.09.19-.13.23v4.68c-.29.27-.43.28-.43.03v-.63h-.96v1c-.29.27-.43.28-.43.03v-5.65l.5.23h.8Zm.1,2.06v-1.86h-.96v1.86h.96Zm0,.2h-.96v1.93h.96v-1.93Zm3.75,2.62v.9h1.3l.43-.43.53.4c.13.11.13.19,0,.23h-3.95v.37c-.29.27-.43.28-.43.03v-3.32c-.29.33-.59.62-.9.86-.11.07-.16.04-.13-.07.64-.71,1.11-1.43,1.4-2.16l.53.2c.18.13.11.21-.2.23l-.3.4.1.17h1.3l.43-1.03.4.17c.24.09.19.18-.17.27l-.47.6h1.4l.37-.37.46.33c.13.11.13.19,0,.23h-2.09v.86h.96l.37-.37.46.33c.13.11.13.19,0,.23h-1.79v.73h.96l.37-.37.46.33c.13.11.13.19,0,.23h-1.79Zm-3.02-5.61h1.83l.2-.27.46.33c.13.11.09.19-.13.23v2.06c-.29.27-.43.28-.43.03v-.23h-1.76v-.2h1.76v-.76h-1.73v-.2h1.73v-.8h-1.93v-.2Zm2.59,3.62h-1.26v.86h1.26v-.86Zm0,1.06h-1.26v.73h1.26v-.73Zm0,.93h-1.26v.9h1.26v-.9Zm.13-5.61h1.53l.2-.27.46.33c.13.11.09.19-.13.23v2.13c-.29.27-.43.28-.43.03v-.3h-1.59v-.2h1.59v-.76h-1.56v-.2h1.56v-.8h-1.63v-.2Z"/><path class="cls-3" d="m57.75,19.04h2.99l.2-.27.46.33c.13.11.09.19-.13.23v5.31c-.29.27-.43.28-.43.03v-.6h-3.16v1c-.29.27-.43.28-.43.03v-6.44l.5.37Zm3.09.2h-3.16v2.09h3.16v-2.09Zm0,2.29h-3.16v2.36h3.16v-2.36Z"/><path class="cls-3" d="m64.13,17.95c1.22,1.02,1.83,2.3,1.83,3.85s-.61,2.83-1.83,3.85l-.17-.17c1.02-1,1.53-2.23,1.53-3.69s-.51-2.69-1.53-3.69l.17-.17Z"/><path class="cls-3" d="m132.47,19.87h1.43l.23-.3.53.37c.18.13.1.22-.23.27v.86c-.29.27-.43.28-.43.03v-.13h-1.53v.76h1.66l.23-.3.53.37c.18.13.1.22-.23.27v.56h.47l.43-.43.53.4c.13.11.13.19,0,.23h-1.43v1.26c-.29.27-.43.28-.43.03v-.23h-1.76v.8c0,.27-.08.46-.23.6-.13.11-.27.18-.4.2-.13.02-.2-.04-.2-.2,0-.11-.06-.18-.17-.2l-.56-.13c-.11-.04-.11-.09,0-.13h.83c.2,0,.3-.1.3-.3v-.63h-2.49v-.2h2.49v-.86h-3.62v-.2h3.62v-.7h-2.39v-.2h2.39v-.76h-1.69v.23c-.29.27-.43.28-.43.03v-1.63l.5.27h1.63v-.66h-3.59v-.2h3.59v-1.06l.6.1c.24.09.19.18-.17.27v.7h2.52l.43-.43.53.4c.13.11.13.19,0,.23h-3.49v.66Zm-2.13.2v.7h1.69v-.7h-1.69Zm3.65.7v-.7h-1.53v.7h1.53Zm.23,1.86v-.7h-1.76v.7h1.76Zm0,.2h-1.76v.86h1.76v-.86Z"/><path class="cls-3" d="m214.18,21.2h1.83c-.09-.04-.13-.15-.13-.33,0-.35-.14-.69-.43-1h-1.93v-.2h2.72v-1.69l.56.1c.18.11.13.19-.13.23v1.36h.83v-1.69l.57.1c.18.11.13.19-.13.23v1.36h.56l.93-1.46.4.33c.18.16.1.22-.23.2l-.93.93h1.3l.43-.43.53.4c.13.11.13.19,0,.23h-2.49l.33.3c.09.13,0,.18-.27.13l-.63.9h1.69l.43-.43.53.4c.13.11.13.19,0,.23h-3.16v.73h1.63l.43-.43.53.4c.13.11.13.19,0,.23h-2.59v.73h2.62l.43-.43.53.4c.13.11.13.19,0,.23h-3.49c1.06.91,2.29,1.44,3.69,1.59-.38.18-.58.37-.6.56-1.46-.51-2.52-1.2-3.19-2.06v2.03c-.29.27-.43.28-.43.03v-1.96c-1.02.95-2.13,1.67-3.32,2.16-.13.04-.16,0-.07-.13,1.17-.6,2.16-1.34,2.96-2.23h-2.96v-.2h3.39v-.73h-2.29v-.2h2.29v-.73h-2.76v-.2Zm.13-2.72c-.09-.09-.07-.12.07-.1.73.22,1.1.5,1.1.83,0,.18-.07.27-.2.27-.09,0-.16-.07-.2-.2-.11-.29-.37-.55-.76-.8Zm1.89,2.72h1.46l.5-1.33h-2.56c.49.31.73.66.73,1.06,0,.13-.04.22-.13.27Z"/><path class="cls-3" d="m292.77,17.91l.73.3c.11.18,0,.23-.33.17.84,1.09,2.08,1.93,3.72,2.52-.27.09-.46.24-.6.47-1.46-.75-2.55-1.73-3.26-2.92-1.26,1.59-2.51,2.61-3.75,3.06-.11,0-.12-.04-.03-.13,1.46-.84,2.64-1.99,3.52-3.46Zm2.16,6.54c-.29-.29-.61-.56-.96-.83-.11-.09-.09-.12.07-.1.58.22,1.07.51,1.49.86.31.27.47.54.47.83,0,.22-.08.33-.23.33-.11,0-.21-.1-.3-.3-.07-.15-.2-.37-.4-.63l-4.52.46c-.13.42-.25.5-.37.23l-.33-.63,1.53-.03.67-1.89h-2.72v-.2h6.18l.43-.43.53.4c.13.11.13.19,0,.23h-3.85l-1,1.86,3.32-.17Zm-4.02-3.46h2.99l.37-.37.46.33c.13.11.13.19,0,.23h-3.82v-.2Z"/><path class="cls-3" d="m324.89,20.34h.56l.37-.37.46.33c.13.11.13.19,0,.23h-1.4v2.16l1.3-.43c.13-.02.15.02.07.13l-2.39,1.1c0,.33-.08.41-.23.23l-.43-.53,1.26-.37v-2.29h-1.23v-.2h1.23v-2.13l.6.1c.24.09.19.18-.17.27v1.76Zm3.12,2.46c-.53,1.09-1.47,1.96-2.82,2.62-.11,0-.13-.03-.07-.1,1.13-.71,1.94-1.55,2.42-2.52h-.63c-.62.91-1.51,1.61-2.66,2.09-.13,0-.16-.04-.07-.13,1.24-.64,2.16-1.59,2.76-2.86h-1.23v-.2h4.32l.43-.43.53.4c.13.11.13.19,0,.23h-3.52c-.13.24-.28.48-.43.7h2.86l.23-.2.4.33c.2.16.14.22-.17.2-.13,1.13-.33,1.86-.6,2.19-.18.22-.42.33-.73.33-.09,0-.13-.07-.13-.2,0-.09-.06-.17-.17-.23l-.33-.2c-.07-.07-.06-.1.03-.1l.6.13c.2.04.37-.03.5-.23.18-.27.32-.87.43-1.83h-.7c-.38,1.2-1.32,2.14-2.82,2.82-.09,0-.11-.03-.07-.1,1.37-.86,2.18-1.77,2.42-2.72h-.8Zm1.36-1.89h-2.23v.2c-.29.27-.43.28-.43.03v-2.99l.5.27h2.06l.2-.27.47.33c.13.11.09.19-.13.23v2.33c-.29.27-.43.28-.43.03v-.17Zm-2.23-2.29v.96h2.23v-.96h-2.23Zm0,2.09h2.23v-.93h-2.23v.93Z"/><path class="cls-3" d="m21.58,130.73c-.13.02-.16-.01-.07-.1.73-.44,1.23-.88,1.49-1.33.33-.55.5-1.2.5-1.93v-3.72l.5.3h2.56l.2-.27.47.33c.13.11.09.19-.13.23v5.68c0,.24-.08.44-.23.6-.13.13-.3.2-.5.2-.09,0-.13-.08-.13-.23,0-.09-.06-.14-.17-.17l-.56-.13c-.11-.07-.11-.11,0-.13h.86c.2,0,.3-.1.3-.3v-1.86h-2.72c-.09.73-.39,1.35-.9,1.86-.42.42-.91.74-1.46.96Zm2.36-6.58v1.69h2.72v-1.69h-2.72Zm0,1.89v1.66h2.72v-1.66h-2.72Z"/><path class="cls-3" d="m32.24,124.42h2.99l.2-.27.46.33c.13.11.09.19-.13.23v5.31c-.29.27-.43.28-.43.03v-.6h-3.16v1c-.29.27-.43.28-.43.03v-6.44l.5.37Zm3.09.2h-3.16v2.09h3.16v-2.09Zm0,2.29h-3.16v2.36h3.16v-2.36Z"/><path class="cls-3" d="m45.99,123.49c-1.02,1-1.53,2.23-1.53,3.69s.51,2.69,1.53,3.69l-.17.17c-1.22-1.02-1.83-2.3-1.83-3.85s.61-2.83,1.83-3.85l.17.17Z"/><path class="cls-3" d="m48.38,124.49l.2-.27.46.33c.13.11.09.19-.13.23v4.68c-.29.27-.43.28-.43.03v-.63h-.96v1c-.29.27-.43.28-.43.03v-5.65l.5.23h.8Zm.1,2.06v-1.86h-.96v1.86h.96Zm0,.2h-.96v1.93h.96v-1.93Zm3.75,2.62v.9h1.3l.43-.43.53.4c.13.11.13.19,0,.23h-3.95v.37c-.29.27-.43.28-.43.03v-3.32c-.29.33-.59.62-.9.86-.11.07-.16.04-.13-.07.64-.71,1.11-1.43,1.4-2.16l.53.2c.18.13.11.21-.2.23l-.3.4.1.17h1.3l.43-1.03.4.17c.24.09.19.18-.17.27l-.47.6h1.4l.37-.37.46.33c.13.11.13.19,0,.23h-2.09v.86h.96l.37-.37.46.33c.13.11.13.19,0,.23h-1.79v.73h.96l.37-.37.46.33c.13.11.13.19,0,.23h-1.79Zm-3.02-5.61h1.83l.2-.27.46.33c.13.11.09.19-.13.23v2.06c-.29.27-.43.28-.43.03v-.23h-1.76v-.2h1.76v-.76h-1.73v-.2h1.73v-.8h-1.93v-.2Zm2.59,3.62h-1.26v.86h1.26v-.86Zm0,1.06h-1.26v.73h1.26v-.73Zm0,.93h-1.26v.9h1.26v-.9Zm.13-5.61h1.53l.2-.27.46.33c.13.11.09.19-.13.23v2.13c-.29.27-.43.28-.43.03v-.3h-1.59v-.2h1.59v-.76h-1.56v-.2h1.56v-.8h-1.63v-.2Z"/><path class="cls-3" d="m57.75,124.42h2.99l.2-.27.46.33c.13.11.09.19-.13.23v5.31c-.29.27-.43.28-.43.03v-.6h-3.16v1c-.29.27-.43.28-.43.03v-6.44l.5.37Zm3.09.2h-3.16v2.09h3.16v-2.09Zm0,2.29h-3.16v2.36h3.16v-2.36Z"/><path class="cls-3" d="m64.13,123.32c1.22,1.02,1.83,2.3,1.83,3.85s-.61,2.83-1.83,3.85l-.17-.17c1.02-1,1.53-2.23,1.53-3.69s-.51-2.69-1.53-3.69l.17-.17Z"/><path class="cls-3" d="m132.47,125.25h1.43l.23-.3.53.37c.18.13.1.22-.23.27v.86c-.29.27-.43.28-.43.03v-.13h-1.53v.76h1.66l.23-.3.53.37c.18.13.1.22-.23.27v.56h.47l.43-.43.53.4c.13.11.13.19,0,.23h-1.43v1.26c-.29.27-.43.28-.43.03v-.23h-1.76v.8c0,.27-.08.46-.23.6-.13.11-.27.18-.4.2-.13.02-.2-.04-.2-.2,0-.11-.06-.18-.17-.2l-.56-.13c-.11-.04-.11-.09,0-.13h.83c.2,0,.3-.1.3-.3v-.63h-2.49v-.2h2.49v-.86h-3.62v-.2h3.62v-.7h-2.39v-.2h2.39v-.76h-1.69v.23c-.29.27-.43.28-.43.03v-1.63l.5.27h1.63v-.66h-3.59v-.2h3.59v-1.06l.6.1c.24.09.19.18-.17.27v.7h2.52l.43-.43.53.4c.13.11.13.19,0,.23h-3.49v.66Zm-2.13.2v.7h1.69v-.7h-1.69Zm3.65.7v-.7h-1.53v.7h1.53Zm.23,1.86v-.7h-1.76v.7h1.76Zm0,.2h-1.76v.86h1.76v-.86Z"/><path class="cls-3" d="m214.18,126.58h1.83c-.09-.04-.13-.16-.13-.33,0-.35-.14-.69-.43-1h-1.93v-.2h2.72v-1.69l.56.1c.18.11.13.19-.13.23v1.36h.83v-1.69l.57.1c.18.11.13.19-.13.23v1.36h.56l.93-1.46.4.33c.18.16.1.22-.23.2l-.93.93h1.3l.43-.43.53.4c.13.11.13.19,0,.23h-2.49l.33.3c.09.13,0,.18-.27.13l-.63.9h1.69l.43-.43.53.4c.13.11.13.19,0,.23h-3.16v.73h1.63l.43-.43.53.4c.13.11.13.19,0,.23h-2.59v.73h2.62l.43-.43.53.4c.13.11.13.19,0,.23h-3.49c1.06.91,2.29,1.44,3.69,1.59-.38.18-.58.37-.6.57-1.46-.51-2.52-1.2-3.19-2.06v2.03c-.29.27-.43.28-.43.03v-1.96c-1.02.95-2.13,1.67-3.32,2.16-.13.04-.16,0-.07-.13,1.17-.6,2.16-1.34,2.96-2.23h-2.96v-.2h3.39v-.73h-2.29v-.2h2.29v-.73h-2.76v-.2Zm.13-2.72c-.09-.09-.07-.12.07-.1.73.22,1.1.5,1.1.83,0,.18-.07.27-.2.27-.09,0-.16-.07-.2-.2-.11-.29-.37-.55-.76-.8Zm1.89,2.72h1.46l.5-1.33h-2.56c.49.31.73.66.73,1.06,0,.13-.04.22-.13.27Z"/><path class="cls-3" d="m293.33,123.29l.73.3c.11.18,0,.23-.33.17.84,1.09,2.08,1.93,3.72,2.52-.27.09-.46.24-.6.47-1.46-.75-2.55-1.73-3.26-2.92-1.26,1.59-2.51,2.61-3.75,3.06-.11,0-.12-.04-.03-.13,1.46-.84,2.64-1.99,3.52-3.46Zm2.16,6.54c-.29-.29-.61-.56-.96-.83-.11-.09-.09-.12.07-.1.58.22,1.07.51,1.49.86.31.27.47.54.47.83,0,.22-.08.33-.23.33-.11,0-.21-.1-.3-.3-.07-.15-.2-.37-.4-.63l-4.52.46c-.13.42-.25.5-.37.23l-.33-.63,1.53-.03.67-1.89h-2.72v-.2h6.18l.43-.43.53.4c.13.11.13.19,0,.23h-3.85l-1,1.86,3.32-.17Zm-4.02-3.46h2.99l.37-.37.46.33c.13.11.13.19,0,.23h-3.82v-.2Z"/><path class="cls-3" d="m325.45,125.72h.56l.37-.37.46.33c.13.11.13.19,0,.23h-1.4v2.16l1.3-.43c.13-.02.15.02.07.13l-2.39,1.1c0,.33-.08.41-.23.23l-.43-.53,1.26-.37v-2.29h-1.23v-.2h1.23v-2.13l.6.1c.24.09.19.18-.17.27v1.76Zm3.12,2.46c-.53,1.09-1.47,1.96-2.82,2.62-.11,0-.13-.03-.07-.1,1.13-.71,1.94-1.55,2.42-2.52h-.63c-.62.91-1.51,1.61-2.66,2.09-.13,0-.16-.04-.07-.13,1.24-.64,2.16-1.59,2.76-2.86h-1.23v-.2h4.32l.43-.43.53.4c.13.11.13.19,0,.23h-3.52c-.13.24-.28.48-.43.7h2.86l.23-.2.4.33c.2.16.14.22-.17.2-.13,1.13-.33,1.86-.6,2.19-.18.22-.42.33-.73.33-.09,0-.13-.07-.13-.2,0-.09-.06-.17-.17-.23l-.33-.2c-.07-.07-.06-.1.03-.1l.6.13c.2.04.37-.03.5-.23.18-.27.32-.87.43-1.83h-.7c-.38,1.2-1.32,2.14-2.82,2.82-.09,0-.11-.03-.07-.1,1.37-.86,2.18-1.77,2.42-2.72h-.8Zm1.36-1.89h-2.23v.2c-.29.27-.43.28-.43.03v-2.99l.5.27h2.06l.2-.27.47.33c.13.11.09.19-.13.23v2.33c-.29.27-.43.28-.43.03v-.17Zm-2.23-2.29v.96h2.23v-.96h-2.23Zm0,2.09h2.23v-.93h-2.23v.93Z"/><path class="cls-3" d="m23.65,32.17l-.1.5h-2.39l-.13,2.29c.42-.46.85-.7,1.3-.7.33,0,.63.13.9.4.35.35.53.82.53,1.4s-.19,1.01-.56,1.36c-.31.31-.72.47-1.23.47-.42,0-.76-.12-1.03-.37s-.4-.52-.4-.83c0-.15.04-.28.13-.37s.19-.13.3-.13c.09,0,.17.03.23.1s.1.16.1.27c0,.13-.03.23-.1.3-.07.09-.1.18-.1.27,0,.11.06.22.17.33.15.13.4.2.73.2s.6-.1.8-.3c.27-.24.4-.65.4-1.23s-.13-1-.4-1.26c-.18-.18-.39-.27-.63-.27-.38,0-.74.24-1.1.73l-.3-.03.17-3.12h2.72Z"/><path class="cls-3" d="m43.67,32.17v4.95c0,.35.21.53.63.53h.33v.2h-2.42v-.2h.3c.42,0,.63-.18.63-.53v-3.92c0-.2-.11-.3-.33-.3h-.6v-.2h.3c.51,0,.85-.18,1.03-.53h.13Z"/><path class="cls-3" d="m48.58,32.54c.27.27.4.56.4.9,0,.64-.34,1.08-1.03,1.33.35.11.62.25.8.43.31.31.47.68.47,1.1,0,.44-.17.82-.5,1.13-.31.31-.73.47-1.26.47-.47,0-.83-.12-1.1-.37-.24-.22-.37-.47-.37-.73,0-.15.04-.28.13-.37.09-.09.18-.13.27-.13s.17.03.23.1c.09.09.13.19.13.3,0,.07-.01.13-.03.2-.07.09-.1.19-.1.3,0,.09.04.18.13.27.15.13.38.2.66.2.35,0,.63-.1.83-.3.24-.22.37-.6.37-1.13,0-.44-.11-.77-.33-1-.22-.22-.61-.33-1.16-.33v-.23c.86,0,1.3-.38,1.3-1.13,0-.38-.1-.68-.3-.9-.18-.18-.42-.27-.73-.27-.24,0-.47.09-.66.27-.07.07-.1.14-.1.23,0,.13.02.22.07.27.04.07.07.14.07.23,0,.24-.1.37-.3.37-.09,0-.17-.03-.23-.1-.09-.09-.13-.21-.13-.37,0-.29.1-.53.3-.73.29-.27.66-.4,1.13-.4s.8.13,1.06.4Z"/><path class="cls-3" d="m53.6,31.27c-1.02,1.06-1.53,2.27-1.53,3.62s.51,2.56,1.53,3.62l-.17.17c-1.24-1.13-1.86-2.39-1.86-3.79s.62-2.66,1.86-3.79l.17.17Z"/><path class="cls-3" d="m60.11,34.1v-2.82l.66.1c.24.09.19.18-.17.27v2.46h2.13l.5-.5.63.46c.13.11.13.19,0,.23h-3.26v3.72h2.49l.5-.5.63.46c.13.11.13.19,0,.23h-7.37v-.2h3.26v-3.72h-2.82v-.2h2.82Z"/><path class="cls-3" d="m67.12,31.27l.17-.17c1.24,1.13,1.86,2.39,1.86,3.79s-.62,2.66-1.86,3.79l-.17-.17c1.02-1.06,1.53-2.27,1.53-3.62s-.51-2.56-1.53-3.62Z"/><path class="cls-3" d="m23.09,138.61v3.82h.9v.2h-.9v1.03c0,.29.17.43.5.43h.3v.2h-2.19v-.2h.37c.33,0,.5-.14.5-.43v-1.03h-2.23v-.17l2.43-3.85h.33Zm-2.46,3.82h1.93v-2.99h-.03l-1.89,2.99Z"/><path class="cls-3" d="m20.33,151.65v4.95c0,.35.21.53.63.53h.33v.2h-2.42v-.2h.3c.42,0,.63-.18.63-.53v-3.92c0-.2-.11-.3-.33-.3h-.6v-.2h.3c.51,0,.85-.18,1.03-.53h.13Z"/><path class="cls-3" d="m25.15,151.98c.22.22.4.52.53.9.2.55.3,1.08.3,1.59,0,.55-.1,1.1-.3,1.63-.15.4-.33.69-.53.86-.27.27-.55.4-.86.4s-.6-.13-.86-.4c-.22-.2-.41-.49-.56-.86-.2-.51-.3-1.05-.3-1.63s.1-1.11.3-1.59c.15-.38.34-.68.56-.9.27-.24.55-.37.86-.37s.6.12.86.37Zm-1.36.1c-.4.4-.6,1.2-.6,2.39s.2,2.03.6,2.42c.15.13.32.2.5.2s.34-.07.5-.2c.38-.38.56-1.18.56-2.42s-.19-2.01-.56-2.39c-.15-.13-.32-.2-.5-.2s-.34.07-.5.2Z"/><path class="cls-3" d="m20.33,164.69v4.95c0,.35.21.53.63.53h.33v.2h-2.42v-.2h.3c.42,0,.63-.18.63-.53v-3.92c0-.2-.11-.3-.33-.3h-.6v-.2h.3c.51,0,.85-.18,1.03-.53h.13Z"/><path class="cls-3" d="m24.58,164.69v4.95c0,.35.21.53.63.53h.33v.2h-2.42v-.2h.3c.42,0,.63-.18.63-.53v-3.92c0-.2-.11-.3-.33-.3h-.6v-.2h.3c.51,0,.85-.18,1.03-.53h.13Z"/><path class="cls-3" d="m20.33,177.73v4.95c0,.35.21.53.63.53h.33v.2h-2.42v-.2h.3c.42,0,.63-.18.63-.53v-3.92c0-.2-.11-.3-.33-.3h-.6v-.2h.3c.51,0,.85-.18,1.03-.53h.13Z"/><path class="cls-3" d="m24.58,177.73v4.95c0,.35.21.53.63.53h.33v.2h-2.42v-.2h.3c.42,0,.63-.18.63-.53v-3.92c0-.2-.11-.3-.33-.3h-.6v-.2h.3c.51,0,.85-.18,1.03-.53h.13Z"/><path class="cls-3" d="m43.9,139.34v-.2h.23c.38,0,.72-.05,1.03-.17.31-.11.52-.27.63-.46h.1v5.02c0,.2.04.34.13.43.11.09.25.13.43.13h.66v.2h-3.09v-.2h.66c.2,0,.34-.04.43-.13.09-.09.13-.23.13-.43v-3.62c0-.13-.04-.27-.13-.4-.07-.11-.19-.17-.37-.17h-.86Z"/><path class="cls-3" d="m53.6,137.71c-1.02,1.06-1.53,2.27-1.53,3.62s.51,2.56,1.53,3.62l-.17.17c-1.24-1.13-1.86-2.39-1.86-3.79s.62-2.66,1.86-3.79l.17.17Z"/><path class="cls-3" d="m60.11,140.54v-2.82l.66.1c.24.09.19.18-.17.27v2.46h2.13l.5-.5.63.46c.13.11.13.19,0,.23h-3.26v3.72h2.49l.5-.5.63.46c.13.11.13.19,0,.23h-7.37v-.2h3.26v-3.72h-2.82v-.2h2.82Z"/><path class="cls-3" d="m67.12,137.71l.17-.17c1.24,1.13,1.86,2.39,1.86,3.79s-.62,2.66-1.86,3.79l-.17-.17c1.02-1.06,1.53-2.27,1.53-3.62s-.51-2.56-1.53-3.62Z"/><path class="cls-3" d="m44.33,152.02c.27.27.4.56.4.9,0,.64-.34,1.08-1.03,1.33.35.11.62.25.8.43.31.31.47.68.47,1.1,0,.44-.17.82-.5,1.13-.31.31-.73.46-1.26.46-.47,0-.83-.12-1.1-.37-.24-.22-.37-.46-.37-.73,0-.16.04-.28.13-.37.09-.09.18-.13.27-.13s.17.03.23.1c.09.09.13.19.13.3,0,.07-.01.13-.03.2-.07.09-.1.19-.1.3,0,.09.04.18.13.27.15.13.38.2.66.2.35,0,.63-.1.83-.3.24-.22.37-.6.37-1.13,0-.44-.11-.77-.33-1-.22-.22-.61-.33-1.16-.33v-.23c.86,0,1.3-.38,1.3-1.13,0-.38-.1-.67-.3-.9-.18-.18-.42-.27-.73-.27-.24,0-.47.09-.66.27-.07.07-.1.14-.1.23,0,.13.02.22.07.27.04.07.07.14.07.23,0,.24-.1.37-.3.37-.09,0-.17-.03-.23-.1-.09-.09-.13-.21-.13-.37,0-.29.1-.53.3-.73.29-.27.66-.4,1.13-.4s.8.13,1.06.4Z"/><path class="cls-3" d="m47.92,151.65v4.95c0,.35.21.53.63.53h.33v.2h-2.42v-.2h.3c.42,0,.63-.18.63-.53v-3.92c0-.2-.11-.3-.33-.3h-.6v-.2h.3c.51,0,.85-.18,1.03-.53h.13Z"/><path class="cls-3" d="m53.6,150.75c-1.02,1.06-1.53,2.27-1.53,3.62s.51,2.56,1.53,3.62l-.17.17c-1.24-1.13-1.86-2.39-1.86-3.79s.62-2.66,1.86-3.79l.17.17Z"/><path class="cls-3" d="m63.03,152.55l.6.6c.09.16.04.22-.13.2l-.43-.07c-.66.44-1.32.86-1.96,1.26.58,1.28,1.61,2.23,3.09,2.82-.38.11-.61.27-.7.46-1.79-1.15-2.85-2.83-3.16-5.05-.04,1.62-.46,2.83-1.26,3.65-.58.6-1.46,1.11-2.66,1.53-.11,0-.13-.04-.07-.13,1.44-.69,2.39-1.44,2.86-2.26.49-.86.73-1.9.73-3.12v-1.79l.4.07c.44.11.45.23.03.37v1.2c.15.69.38,1.39.66,2.13.71-.55,1.37-1.17,1.99-1.86Zm-4.78.3c.04.22.04.53,0,.93-.09.75-.32,1.13-.7,1.13-.2,0-.3-.08-.3-.23,0-.13.03-.23.1-.3.27-.27.44-.5.53-.7.11-.24.18-.53.2-.86.09-.13.14-.12.17.03Z"/><path class="cls-3" d="m67.12,150.75l.17-.17c1.24,1.13,1.86,2.39,1.86,3.79s-.62,2.66-1.86,3.79l-.17-.17c1.02-1.06,1.53-2.27,1.53-3.62s-.51-2.56-1.53-3.62Z"/><path class="cls-3" d="m44.5,165.06c.27.27.4.6.4,1,0,.53-.25,1.04-.76,1.53-1.28,1.24-1.98,2-2.09,2.29h1.96c.4,0,.65-.31.76-.93h.2l-.2,1.43h-3.09v-.43c.2-.42.72-1.04,1.56-1.86.73-.71,1.1-1.36,1.1-1.96,0-.44-.11-.76-.33-.96-.18-.18-.42-.27-.73-.27s-.56.09-.76.27c-.13.13-.2.3-.2.5,0,.13.04.24.13.33.07.07.1.16.1.27,0,.22-.11.33-.33.33-.13,0-.23-.03-.3-.1-.09-.09-.13-.22-.13-.4,0-.4.12-.72.37-.96.33-.31.73-.47,1.2-.47.51,0,.9.13,1.16.4Z"/><path class="cls-3" d="m49.12,164.69l-.1.5h-2.39l-.13,2.29c.42-.46.85-.7,1.3-.7.33,0,.63.13.9.4.35.35.53.82.53,1.39s-.19,1.01-.56,1.36c-.31.31-.72.46-1.23.46-.42,0-.76-.12-1.03-.37-.27-.24-.4-.52-.4-.83,0-.16.04-.28.13-.37s.19-.13.3-.13c.09,0,.17.03.23.1s.1.16.1.27c0,.13-.03.23-.1.3-.07.09-.1.18-.1.27,0,.11.06.22.17.33.15.13.4.2.73.2s.6-.1.8-.3c.27-.24.4-.65.4-1.23s-.13-1-.4-1.26c-.18-.18-.39-.27-.63-.27-.38,0-.74.24-1.1.73l-.3-.03.17-3.12h2.72Z"/><path class="cls-3" d="m53.6,163.79c-1.02,1.06-1.53,2.27-1.53,3.62s.51,2.56,1.53,3.62l-.17.17c-1.24-1.13-1.86-2.39-1.86-3.79s.62-2.66,1.86-3.79l.17.17Z"/><path class="cls-3" d="m60.11,166.62v-2.82l.66.1c.24.09.19.18-.17.27v2.46h2.13l.5-.5.63.46c.13.11.13.19,0,.23h-3.26v3.72h2.49l.5-.5.63.46c.13.11.13.19,0,.23h-7.37v-.2h3.26v-3.72h-2.82v-.2h2.82Z"/><path class="cls-3" d="m67.12,163.79l.17-.17c1.24,1.13,1.86,2.39,1.86,3.79s-.62,2.66-1.86,3.79l-.17-.17c1.02-1.06,1.53-2.27,1.53-3.62s-.51-2.56-1.53-3.62Z"/><path class="cls-3" d="m44.5,178.09c.27.27.4.6.4,1,0,.53-.25,1.04-.76,1.53-1.28,1.24-1.98,2-2.09,2.29h1.96c.4,0,.65-.31.76-.93h.2l-.2,1.43h-3.09v-.43c.2-.42.72-1.04,1.56-1.86.73-.71,1.1-1.36,1.1-1.96,0-.44-.11-.76-.33-.96-.18-.18-.42-.27-.73-.27s-.56.09-.76.27c-.13.13-.2.3-.2.5,0,.13.04.24.13.33.07.07.1.16.1.27,0,.22-.11.33-.33.33-.13,0-.23-.03-.3-.1-.09-.09-.13-.22-.13-.4,0-.4.12-.72.37-.96.33-.31.73-.46,1.2-.46.51,0,.9.13,1.16.4Z"/><path class="cls-3" d="m48.78,177.96c.15.16.23.31.23.46,0,.27-.12.4-.37.4-.22,0-.33-.11-.33-.33,0-.09.01-.18.03-.27,0-.11-.02-.18-.07-.2-.07-.07-.18-.1-.33-.1-.31,0-.59.1-.83.3-.4.31-.6,1.17-.6,2.59.38-.71.84-1.06,1.4-1.06.33,0,.62.12.86.37.35.33.53.79.53,1.36,0,.69-.18,1.2-.53,1.53-.29.29-.63.43-1.03.43-.49,0-.88-.14-1.16-.43-.46-.44-.7-1.16-.7-2.16,0-1.33.3-2.24.9-2.72.35-.29.77-.43,1.26-.43.29,0,.53.09.73.27Zm-2.26,3.36c0,.84.18,1.39.53,1.66.2.16.44.23.73.23.24,0,.44-.08.6-.23.24-.22.37-.72.37-1.49,0-.53-.11-.91-.33-1.13-.18-.18-.38-.27-.6-.27-.51,0-.94.41-1.3,1.23Z"/><path class="cls-3" d="m53.6,176.83c-1.02,1.06-1.53,2.27-1.53,3.62s.51,2.56,1.53,3.62l-.17.17c-1.24-1.13-1.86-2.39-1.86-3.79s.62-2.66,1.86-3.79l.17.17Z"/><path class="cls-3" d="m58.88,177.7h2.99l.2-.27.46.33c.13.11.09.19-.13.23v5.32c-.29.27-.43.28-.43.03v-.6h-3.16v1c-.29.27-.43.28-.43.03v-6.44l.5.37Zm3.09.2h-3.16v2.09h3.16v-2.09Zm0,2.29h-3.16v2.36h3.16v-2.36Z"/><path class="cls-3" d="m67.12,176.83l.17-.17c1.24,1.13,1.86,2.39,1.86,3.79s-.62,2.66-1.86,3.79l-.17-.17c1.02-1.06,1.53-2.27,1.53-3.62s-.51-2.56-1.53-3.62Z"/><path class="cls-3" d="m157.99,37.98l1.4-.33v-2.52h-1.79v-.2h1.79v-3.55l.5.23h3.16l.43-.43.53.4c.13.11.13.19,0,.23h-4.19v.93h2.92l.37-.37.46.33c.13.11.13.19,0,.23h-3.75v.83h2.92l.37-.37.46.33c.13.11.13.19,0,.23h-3.75v.96h4.19l.5-.5.63.46c.13.11.13.19,0,.23h-3.75c.15.55.4,1.04.73,1.46l1.26-1.3.46.43c.13.13.01.18-.37.13l-1.26.83c.58.66,1.53,1.1,2.86,1.3-.27.11-.44.28-.53.5-1.09-.31-1.9-.76-2.46-1.36l-3.22,1.2c-.02.42-.12.54-.3.37l-.56-.7Zm3.16-2.86h-1.33v2.43l2.16-.56c-.4-.55-.68-1.17-.83-1.86Z"/><path class="cls-3" d="m169.58,33.07l-.33.33h2.06l.23-.2.47.37c.13.13,0,.18-.4.13-.38.31-.79.59-1.23.83.86.33,2.07.59,3.62.76-.24.11-.4.27-.47.47-1.35-.24-2.5-.59-3.45-1.03-1.13.58-2.34,1.01-3.62,1.3-.18,0-.19-.06-.03-.17,1.37-.4,2.48-.84,3.32-1.33-.38-.27-.68-.51-.9-.73-.73.55-1.38.95-1.96,1.2-.16.04-.18,0-.07-.13,1.08-.6,1.9-1.31,2.46-2.13h-1.43v.5c-.29.27-.43.28-.43.03v-1.93l.56.1c.18.11.13.19-.13.23v.86h1.99v-1.5l.6.1c.24.09.19.18-.17.27v1.13h2.03v-1.16l.56.1c.18.11.13.19-.13.23v1.43c-.29.27-.43.28-.43.03v-.43h-2.69l.33.17c.18.18.06.23-.37.17Zm.7,2.72h1.16l.33-.33.46.37c.07.09.04.14-.07.17h-1.89v.66h1.69l.37-.37.47.33c.13.11.13.19,0,.23h-2.52v.63h2.52l.43-.43.53.4c.13.11.13.19,0,.23h-3.49v.86c-.29.27-.43.28-.43.03v-.9h-3.35v-.2h3.35v-.63h-2.49v-.2h2.49v-.66h-1.76v-.2h1.76v-.7l.6.1c.24.09.19.18-.17.27v.33Zm-1.2-2.19l-.13.1c.38.29.74.51,1.1.66.4-.22.75-.48,1.06-.76h-2.03Z"/><path class="cls-3" d="m178.22,31.01l.73.3c.11.18,0,.23-.33.17.84,1.09,2.08,1.93,3.72,2.52-.27.09-.47.24-.6.47-1.46-.75-2.55-1.73-3.26-2.92-1.26,1.59-2.51,2.61-3.75,3.06-.11,0-.12-.04-.03-.13,1.46-.84,2.64-1.99,3.52-3.46Zm2.16,6.54c-.29-.29-.61-.56-.96-.83-.11-.09-.09-.12.07-.1.58.22,1.07.51,1.49.86.31.27.47.54.47.83,0,.22-.08.33-.23.33-.11,0-.21-.1-.3-.3-.07-.15-.2-.37-.4-.63l-4.52.46c-.13.42-.25.5-.37.23l-.33-.63,1.53-.03.66-1.89h-2.72v-.2h6.18l.43-.43.53.4c.13.11.13.19,0,.23h-3.85l-1,1.86,3.32-.17Zm-4.02-3.46h2.99l.37-.37.47.33c.13.11.13.19,0,.23h-3.82v-.2Z"/><path class="cls-3" d="m186.16,35.13c0,.18-.06.27-.17.27-.07,0-.12-.08-.17-.23-.02-.09-.06-.18-.1-.27l-.76.1v3.55c-.29.27-.43.28-.43.03v-3.52l-.9.1c0,.33-.08.35-.23.07l-.27-.43h1.03l1.26-2.42.43.37c.15.13.09.19-.2.17l-1.33,1.89,1.36-.03c-.09-.22-.23-.41-.43-.56-.07-.09-.04-.13.07-.13.55.35.83.71.83,1.06Zm-2.96-2.56c-.07-.07-.04-.1.07-.1.27.07.5.17.7.3l.76-1.69.5.33c.15.16.06.22-.3.2l-.86,1.26c.22.22.33.41.33.56,0,.18-.08.27-.23.27-.09,0-.16-.07-.2-.2-.11-.35-.37-.66-.76-.93Zm.17,5.51c-.09.07-.13.04-.13-.07.29-.84.43-1.63.43-2.36l.56.17c.18.11.13.19-.13.23-.18.82-.42,1.5-.73,2.03Zm2.69-1.36c0,.16-.07.23-.2.23-.09,0-.16-.1-.2-.3-.09-.38-.27-.72-.53-1.03,0-.09.04-.11.13-.07.53.33.8.72.8,1.16Zm1.3-5.12l.6.3c.11.11.02.18-.27.2-.51.89-1.06,1.52-1.66,1.89-.11,0-.13-.04-.07-.13.66-.62,1.13-1.37,1.4-2.26Zm-.66,4.55c.04.75-.02,1.26-.2,1.53-.09.13-.18.2-.27.2-.16,0-.23-.08-.23-.23,0-.09.03-.17.1-.23.18-.18.33-.6.47-1.26.04-.09.09-.09.13,0Zm.86-1.43l1.96-.1c-.24-.27-.49-.5-.73-.7-.07-.09-.04-.13.07-.13.91.44,1.36.89,1.36,1.33,0,.16-.07.23-.2.23-.09,0-.16-.07-.2-.2-.04-.09-.11-.2-.2-.33l-2.66.3c-.02.31-.11.37-.27.17l-.43-.56h1.06l.76-1.93.63.3c.15.16.04.22-.33.2l-.83,1.43Zm.1,3.52c-.27,0-.4-.13-.4-.4v-1.89l.56.1c.18.11.13.19-.13.23v1.43c0,.09.04.13.13.13h1.26c.13,0,.22-.09.27-.27l.13-.7s.08-.04.1,0v.76c0,.11.06.19.17.23.11.04.11.12,0,.23-.09.09-.21.13-.37.13h-1.73Zm.07-2.92c.8.24,1.2.51,1.2.8,0,.16-.06.23-.17.23-.07,0-.14-.05-.23-.17-.18-.27-.46-.52-.86-.76-.09-.09-.07-.12.07-.1Zm1.13-4.02c.4,1.15,1.05,1.93,1.96,2.33-.22.02-.4.13-.53.33-.75-.58-1.3-1.43-1.63-2.56l.2-.1Zm1.99,6.08c0,.16-.07.23-.2.23-.09,0-.18-.11-.27-.33-.18-.4-.48-.77-.9-1.13-.07-.09-.04-.13.07-.13.86.44,1.3.9,1.3,1.36Z"/><path class="cls-3" d="m195.22,31.01l.73.3c.11.18,0,.23-.33.17.84,1.09,2.08,1.93,3.72,2.52-.27.09-.47.24-.6.47-1.46-.75-2.55-1.73-3.26-2.92-1.26,1.59-2.51,2.61-3.75,3.06-.11,0-.12-.04-.03-.13,1.46-.84,2.64-1.99,3.52-3.46Zm2.16,6.54c-.29-.29-.61-.56-.96-.83-.11-.09-.09-.12.07-.1.58.22,1.07.51,1.49.86.31.27.47.54.47.83,0,.22-.08.33-.23.33-.11,0-.21-.1-.3-.3-.07-.15-.2-.37-.4-.63l-4.52.46c-.13.42-.25.5-.37.23l-.33-.63,1.53-.03.66-1.89h-2.72v-.2h6.18l.43-.43.53.4c.13.11.13.19,0,.23h-3.85l-1,1.86,3.32-.17Zm-4.02-3.46h2.99l.37-.37.47.33c.13.11.13.19,0,.23h-3.82v-.2Z"/><path class="cls-3" d="m284.21,33.7h-.17c.02,2.3-1.14,3.89-3.49,4.75-.16.02-.18-.03-.07-.17,2.04-.91,3.08-2.44,3.12-4.58h-3.06v-.2h3.06v-2.39l.56.1c.18.11.13.19-.13.23v2.06h2.66l.5-.5.63.47c.13.11.13.19,0,.23h-3.42c.38,1.95,1.57,3.37,3.59,4.25-.35.07-.62.19-.8.37-1.71-1.02-2.7-2.56-2.99-4.62Z"/><path class="cls-3" d="m289.66,34.59c-.09,0-.16-.07-.2-.2-.13-.33-.34-.61-.63-.83-.09-.09-.06-.12.1-.1.67.27,1,.53,1,.8,0,.22-.09.33-.27.33Zm1.69-2.59l-1.29,4.22c-.09.29-.08.72.03,1.3.04.24.07.45.07.63,0,.24-.11.37-.33.37-.16,0-.25-.08-.3-.23-.04-.13-.03-.34.03-.63.02-.27.03-.47.03-.6,0-.35-.12-.56-.37-.63l-.4-.07v-.13h.8l1.56-4.29c.13-.11.19-.09.17.07Zm-.9.27c0,.2-.08.3-.23.3-.13,0-.23-.08-.3-.23-.18-.27-.41-.48-.7-.63-.11-.09-.1-.13.03-.13.8.18,1.2.41,1.2.7Zm3.32,2.52h-.93v.37c0,1.68-.82,2.83-2.46,3.46-.13,0-.16-.04-.07-.13,1.4-.73,2.09-1.82,2.09-3.26v-.43h-1.5v-.2h2.29v-1.73h-1.1c-.29.58-.6,1.05-.93,1.43-.11.07-.16.04-.13-.07.49-.8.81-1.68.96-2.66l.6.23c.33.13.27.23-.2.3l-.23.56h1.03v-1.56l.57.1c.18.11.13.19-.13.23v1.23h1.23l.43-.43.53.4c.13.11.13.19,0,.23h-2.19v1.73h1.76l.5-.5.63.47c.13.11.13.19,0,.23h-2.33v2.76c0,.09.04.13.13.13h1.33c.22,0,.35-.11.4-.33l.23-1.1s.08-.04.1,0v1.16c0,.11.04.2.13.27.13.11.12.21-.03.3-.11.07-.28.1-.5.1h-1.83c-.27,0-.4-.13-.4-.4v-2.89Z"/><path class="cls-3" d="m300.89,32.14v-1.06l.56.1c.18.11.13.19-.13.23v.73h2.23l.5-.5.63.46c.13.11.13.19,0,.23h-7.11v-.2h3.32Zm-2.39,2.96h5.31l.2-.27.47.33c.13.11.09.19-.13.23v2.56c0,.24-.08.43-.23.56-.09.09-.2.13-.33.13-.09,0-.13-.04-.13-.13,0-.11-.07-.19-.2-.23l-.43-.1c-.09-.04-.09-.09,0-.13h.66c.16,0,.23-.08.23-.23v-2.52h-5.51v3.19c-.29.27-.43.28-.43.03v-3.75l.53.33Zm1.36-1.99h2.62l.2-.27.46.33c.13.11.09.19-.13.23v1.16c-.29.27-.43.28-.43.03v-.27h-2.79v.33c-.29.27-.43.28-.43.03v-1.89l.5.3Zm2.16,2.82l.2-.23.43.3c.13.11.09.19-.13.23v1.43c-.29.27-.43.28-.43.03v-.43h-1.99v.43c-.29.27-.43.28-.43.03v-2.03l.5.23h1.86Zm-2.23-2.62v.83h2.79v-.83h-2.79Zm.3,2.82v.93h1.99v-.93h-1.99Z"/><path class="cls-3" d="m306.97,34.59c-.35.71-.74,1.31-1.16,1.79-.11.07-.16.03-.13-.1.73-1.17,1.16-2.17,1.3-2.99v-.17h-1.23v-.2h1.23v-1.86l.56.1c.18.11.13.19-.13.23v1.53h.43l.37-.37.47.33c.13.11.13.19,0,.23h-1.26v1.1c.71.18,1.06.4,1.06.66,0,.18-.08.27-.23.27-.09,0-.17-.08-.23-.23-.11-.2-.31-.4-.6-.6v4.15c-.29.27-.43.28-.43.03v-3.92Zm5.08.3c-.27.64-.61,1.23-1.03,1.76.62.6,1.46,1.05,2.52,1.36-.24.09-.43.22-.56.4-.82-.29-1.55-.77-2.19-1.46-.71.78-1.72,1.32-3.02,1.63-.13.02-.17-.02-.1-.13,1.24-.4,2.2-.98,2.89-1.76-.33-.44-.65-1.05-.96-1.83l.33-.03c.27.69.54,1.21.83,1.56.44-.62.77-1.32,1-2.09l.63.4c.11.16,0,.22-.33.2Zm-1.76-1.53c.18.15.1.22-.23.2-.4.71-.86,1.33-1.39,1.86-.13.09-.18.06-.13-.1.58-.75.97-1.5,1.2-2.23l.56.27Zm.76-.86h1.26l.5-.5.63.47c.13.11.13.19,0,.23h-4.65v-.2h1.83v-1.43l.57.1c.18.11.13.19-.13.23v1.1Zm1.83,2.29c-.07,0-.16-.09-.27-.27-.35-.49-.85-.94-1.49-1.36-.07-.07-.04-.1.07-.1,1.28.51,1.93,1,1.93,1.46,0,.18-.08.27-.23.27Z"/><path class="cls-3" d="m316.1,31.01l.66.33c.22.16.14.23-.23.23-.22.6-.48,1.21-.76,1.83l.2.1c.18.11.13.19-.13.23v4.75c-.29.27-.43.28-.43.03v-4.52c-.22.4-.51.8-.86,1.2-.13.07-.18.03-.13-.1.8-1.22,1.36-2.58,1.69-4.09Zm3.06,2.09h-.07v3.46h.83l.37-.37.46.33c.13.11.13.19,0,.23h-1.66v1.73c-.29.27-.43.28-.43.03v-1.76h-1.56v-.2h1.56v-2.79c-.66,1.24-1.46,2.3-2.39,3.19-.16.07-.19.02-.1-.13,1.13-1.35,1.87-2.59,2.23-3.72h-2.03v-.2h2.29v-1.79l.57.1c.18.11.13.19-.13.23v1.46h1.83l.5-.5.63.46c.13.11.13.19,0,.23h-2.72c.46,1.4,1.41,2.55,2.82,3.46-.24.13-.43.28-.56.43-1.22-1.02-2.03-2.31-2.43-3.89Z"/><path class="cls-3" d="m327.66,32.57c.91.31,1.58.64,2.03,1,.2.16.3.32.3.5s-.07.27-.2.27c-.09,0-.2-.08-.33-.23-.18-.2-.34-.37-.5-.5l-4.98.43c-.09.33-.19.41-.3.23l-.37-.63,2.09-.03.67-1.26h-3.06v-.2h3.39v-1.23l.56.1c.18.07.13.14-.13.23v.9h2.52l.5-.5.63.46c.13.11.13.19,0,.23h-3.95l.13.13c.09.13,0,.18-.27.13l-.83,1,3.22-.17c-.29-.24-.7-.5-1.23-.76-.07-.09-.03-.12.1-.1Zm-2.96,1.79l.5.3h3.16l.2-.27.46.33c.13.11.09.19-.13.23v2.86c0,.27-.08.46-.23.6-.09.09-.24.15-.46.2-.09.02-.13-.03-.13-.17s-.08-.22-.23-.27l-.47-.1c-.11-.04-.11-.09,0-.13h.8c.2,0,.3-.1.3-.3v-.73h-3.32v1.66c-.29.27-.43.28-.43.03v-4.25Zm.43.5v.83h3.32v-.83h-3.32Zm0,1.03v.83h3.32v-.83h-3.32Z"/><path class="cls-3" d="m332.15,33.4l.37.2h.46v-.93l.56.1c.18.11.13.19-.13.23v.6h.3l.2-.27.47.33c.13.11.09.19-.13.23v2.26c-.29.27-.43.28-.43.03v-.33h-1.36v1.79l1.53-.33c-.15-.24-.35-.48-.6-.7-.04-.09-.02-.12.07-.1.46.27.8.51,1,.73.18.2.27.39.27.56,0,.2-.06.3-.17.3-.09,0-.16-.06-.2-.17-.07-.18-.14-.33-.23-.46l-2.16.7c-.09.31-.18.35-.27.13l-.33-.5.67-.1v-4.19c-.22.29-.49.58-.8.86-.09.04-.13.01-.13-.1.8-.97,1.37-2.03,1.73-3.16l.66.23c.13.07.06.13-.23.2l-.1.13c.62.22,1.03.45,1.23.7.09.11.13.23.13.37,0,.16-.07.23-.2.23-.09,0-.18-.1-.27-.3-.2-.4-.51-.7-.93-.9-.29.6-.61,1.13-.96,1.59Zm1.66,1.23v-.83h-1.36v.83h1.36Zm-1.36,1.03h1.36v-.83h-1.36v.83Zm5.71-2.39c-.09.07-.13.04-.13-.07l.3-.73h-3.02c0,.31-.06.56-.17.76-.07.11-.17.17-.3.17s-.2-.07-.2-.2c0-.09.04-.18.13-.27.2-.2.31-.53.33-1,0-.11.04-.12.13-.03.02.13.03.25.03.37h1.23v-1.16l.56.1c.18.11.13.19-.13.23v.83h1.36l.2-.27.63.53c.07.09.04.14-.07.17-.04,0-.17.01-.37.03l-.53.53Zm0,.76v1.4c-.29.27-.43.28-.43.03v-.27h-1.93v1.03h2.03l.2-.27.47.33c.13.11.09.19-.13.23v1.69c-.29.27-.43.28-.43.03v-.37h-2.13v.73c-.29.22-.43.21-.43-.03v-5.18l.5.33h1.76l.2-.27.46.33c.13.11.09.19-.13.23Zm-.43-.1h-1.93v1.06h1.93v-1.06Zm.2,2.49h-2.13v1.26h2.13v-1.26Z"/><path class="cls-3" d="m147.26,141.87c.18-.22.35-.48.53-.76h-1.13v.33c-.29.27-.43.28-.43.03v-2.52l.5.23h.6v-.63h-2.29v-.2h2.29v-.86l.56.1c.18.11.13.19-.13.23v.53h1.53v-.86l.56.1c.18.11.13.19-.13.23v.53h1.63l.5-.5.63.46c.13.11.13.19,0,.23h-2.76v.63h.7l.2-.27.46.33c.13.11.09.19-.13.23v1.76c-.29.27-.43.28-.43.03v-.17h-2.23c-.18.29-.35.54-.53.76h3.79l.5-.5.63.46c.13.11.13.19,0,.23h-2.43c.58.73,1.35,1.2,2.33,1.4-.27.13-.43.28-.5.43-.8-.38-1.47-.99-2.03-1.83h-2.42c-.8.84-1.72,1.47-2.76,1.89-.15.02-.18-.02-.07-.13.95-.49,1.73-1.07,2.33-1.76h-2.09v-.2h2.23Zm1.3.8l-.13.5h1.66l.2-.2.47.37c.09.11.01.19-.23.23-.09.62-.25,1.07-.5,1.36-.11.15-.29.25-.53.3-.16.04-.23,0-.23-.13,0-.07-.03-.13-.1-.2l-.43-.17c-.07-.07-.06-.1.03-.1l.73.1c.15-.02.27-.09.33-.2.15-.24.27-.63.33-1.16h-1.79c-.38,1.02-1.37,1.67-2.99,1.96-.13,0-.14-.04-.03-.13,1.44-.4,2.31-1.01,2.62-1.83h-1.13v-.2h1.2c.07-.27.13-.57.2-.9l.56.2c.13.07.06.13-.23.2Zm1.96-3.29h-3.85v.63h3.85v-.63Zm0,.83h-3.85v.7h3.85v-.7Zm-1.23-1.03v-.63h-1.53v.63h1.53Z"/><path class="cls-3" d="m153.5,142.1c-.18.07-.22.02-.13-.13,1.42-1.11,2.54-2.58,3.36-4.42l.7.2c.11.09.04.14-.2.17.93,1.35,2.27,2.3,4.02,2.86-.44.22-.66.4-.66.53-1.53-.86-2.69-1.94-3.49-3.22-.93,1.71-2.13,3.05-3.59,4.02Zm3.92,2.42h2.42l.5-.5.63.46c.13.11.13.19,0,.23h-7.14v-.2h3.16v-2.42h-2.43v-.2h2.43v-1.2h-1.23v-.2h2.09l.43-.43.53.4c.13.11.13.19,0,.23h-1.4v1.2h1.59l.5-.5.63.46c.13.11.13.19,0,.23h-2.72v2.42Zm-2.62-1.96c-.09-.11-.06-.14.1-.1.66.42,1.02.88,1.06,1.36,0,.16-.02.25-.07.3-.13.11-.24.09-.33-.07-.13-.62-.39-1.12-.76-1.5Zm4.58.37l-1.2,1.2c-.16.09-.19.04-.1-.13.35-.49.66-1.03.93-1.63l.6.43c.09.13.01.18-.23.13Z"/><path class="cls-3" d="m166.12,143.53c1,.55,2.1.86,3.32.93-.38.24-.61.42-.7.53-1.04-.2-2.02-.61-2.92-1.23-1,.71-2.26,1.16-3.79,1.36-.16-.02-.17-.08-.03-.17,1.57-.33,2.73-.81,3.49-1.43-.47-.42-.91-.97-1.33-1.66h-.93v-.2h3.85l.27-.27.63.46c.07.13-.08.18-.43.13-.51.64-.99,1.15-1.43,1.53Zm-3.55-2.03c-.09.16-.21.23-.37.23s-.23-.09-.23-.27c0-.13.04-.24.13-.33.29-.35.44-.76.46-1.23.04-.15.09-.17.13-.03l.07.37h3.89l.66-1.73.53.27c.18.11.13.19-.13.23l-.93,1.23h1.73l.3-.33.4.4c.27.27.23.37-.1.3-.09,0-.17.03-.23.1l-.6.5c-.09.04-.12.01-.1-.1l.37-.67h-5.78c.04.47-.02.82-.2,1.06Zm-.17-2.72c-.11,0-.12-.04-.03-.13,1.99-.27,3.69-.62,5.08-1.06l.7.37c.18.13,0,.18-.53.13-2.02.38-3.75.61-5.22.7Zm1.4.96c-.11-.29-.27-.53-.46-.73-.09-.11-.06-.14.1-.1.53.31.8.6.8.86,0,.16-.07.23-.2.23-.11,0-.19-.09-.23-.27Zm3.22,2.13h-2.66c.44.6.91,1.07,1.4,1.43.42-.33.84-.81,1.26-1.43Zm-1.26-2.19c0,.16-.07.23-.2.23-.07,0-.13-.04-.2-.13-.11-.44-.27-.75-.47-.93-.04-.07-.02-.1.07-.1.53.31.8.62.8.93Z"/><path class="cls-3" d="m172.07,140.14v4.68c-.29.27-.43.28-.43.03v-4.45c-.33.53-.72,1.01-1.16,1.43-.13.09-.17.06-.1-.1.82-1.13,1.46-2.52,1.93-4.19l.6.23c.2.09.13.18-.2.27-.22.58-.48,1.17-.76,1.79l.27.07c.18.11.13.19-.13.23Zm4.38,4.02c0,.27-.08.46-.23.6-.13.11-.29.18-.47.2-.13.02-.2-.03-.2-.17,0-.11-.06-.19-.17-.23l-.5-.13c-.11-.04-.11-.09,0-.13h.83c.2,0,.3-.1.3-.3v-3.85h-3.39v-.2h3.39v-2.29l.56.1c.18.11.13.19-.13.23v1.96h.5l.5-.5.63.46c.13.11.13.19,0,.23h-1.63v4.02Zm-3.16-3.02c-.11-.09-.09-.12.07-.1.82.35,1.23.8,1.23,1.33,0,.18-.08.27-.23.27-.11,0-.19-.07-.23-.2-.2-.58-.48-1.01-.83-1.29Z"/><path class="cls-3" d="m181.74,140.21h-1.86v4.72c-.29.27-.43.28-.43.03v-7.28l.5.3h1.69l.2-.27.47.33c.13.11.09.19-.13.23v2.26c-.29.27-.43.28-.43.03v-.37Zm0-1.23v-.8h-1.86v.8h1.86Zm0,.2h-1.86v.83h1.86v-.83Zm-1.16,5.35c.89-.58,1.33-1.2,1.33-1.86v-.2h-1.46v-.2h1.46v-.96h-.96v-.2h3.12l.37-.37.46.33c.13.11.13.19,0,.23h-1.1v.96h.63l.37-.37.46.33c.13.11.13.19,0,.23h-1.46v1.99c-.29.27-.43.28-.43.03v-2.03h-1.03v.2c0,.78-.56,1.45-1.69,2.03-.16.02-.18-.03-.07-.17Zm1.76-3.22v.96h1.03v-.96h-1.03Zm.83-.76v-2.82l.5.27h1.79l.2-.27.46.33c.13.11.09.19-.13.23v5.98c0,.24-.08.43-.23.56-.09.09-.2.13-.33.13-.09,0-.13-.04-.13-.13,0-.13-.07-.22-.2-.27l-.43-.07c-.09-.04-.09-.09,0-.13h.66c.15,0,.23-.08.23-.23v-3.92h-1.96v.3c-.29.27-.43.28-.43.03Zm2.39-2.36h-1.96v.8h1.96v-.8Zm0,1h-1.96v.83h1.96v-.83Z"/><path class="cls-3" d="m187.42,144.72c.95-.64,1.57-1.27,1.86-1.89-.18-.16-.45-.32-.83-.5-.04.18-.1.35-.17.53-.35.2-.49.18-.4-.07.27-.91.5-1.85.7-2.82h-1.06v-.2h1.1c.13-.53.29-1.28.46-2.26l.53.17c.24.09.2.18-.13.27-.13.64-.27,1.25-.4,1.83h.9l.27-.27.43.43c.18.16.1.23-.23.23-.16,1.09-.39,1.95-.7,2.59.51.35.76.63.76.83,0,.16-.07.23-.2.23-.07,0-.13-.05-.2-.17-.13-.22-.31-.42-.53-.6-.55.8-1.24,1.38-2.06,1.76-.13.02-.17-.01-.1-.1Zm2.62-4.75h-1c-.22.93-.41,1.67-.56,2.23.33.09.64.21.93.37.27-.58.48-1.44.63-2.59Zm5.22,1c0,.2-.08.3-.23.3-.11,0-.19-.08-.23-.23-.09-.22-.19-.4-.3-.53l-2.99.43c-.04.33-.13.41-.27.23l-.4-.6,1-.03.93-2.96.6.3c.18.16.1.23-.23.23l-1.13,2.42,2.36-.2c-.24-.31-.55-.59-.93-.83-.07-.07-.04-.1.07-.1.24.07.52.2.83.4.62.44.93.83.93,1.16Zm-3.32.9h2.06l.23-.3.53.37c.18.13.1.22-.23.27v2.33c-.29.27-.43.28-.43.03v-.3h-2.23v.6c-.29.27-.43.28-.43.03v-3.32l.5.3Zm2.16,2.19v-1.99h-2.23v1.99h2.23Z"/><path class="cls-3" d="m202.07,138.65c-.22,0-.39.04-.5.13l-1.5,1c.18.18.27.34.27.5,0,.09-.03.17-.1.23h2.36l.27-.3.66.53c.13.11.13.19,0,.23-.22,0-.39.04-.5.13l-1.3,1s-.08,0-.1-.07l1.03-1.33h-2.52v3.45c0,.27-.08.46-.23.6-.13.11-.27.18-.4.2-.13.02-.2-.03-.2-.17,0-.11-.06-.19-.17-.23l-.6-.13c-.11-.04-.11-.09,0-.13h.86c.2,0,.3-.1.3-.3v-3.29h-3.65v-.2h3.95c-.11-.07-.2-.19-.27-.37-.27-.4-.64-.73-1.13-1-.09-.09-.07-.12.07-.1.53.16.95.35,1.26.6l1.16-1.16h-4.19v-.2h4.22l.33-.33.6.46c.13.11.13.19,0,.23Z"/><path class="cls-3" d="m210.8,140.37h-2.26v1.63h1.63l.43-.43.53.4c.13.11.13.19,0,.23h-2.59v2.09c.15.04.44.07.86.07h2.62c-.13.04-.27.18-.4.4h-2.52c-1.28,0-2.24-.62-2.86-1.86-.29.82-.79,1.52-1.49,2.09-.11.02-.14-.01-.1-.1.84-.82,1.34-2.11,1.49-3.89l.7.23c.2.09.11.18-.27.27-.07.42-.15.81-.27,1.16.49.84,1.08,1.36,1.79,1.56v-3.85h-2.19v-.2h3.92l.43-.43.53.4c.13.11.13.19,0,.23Zm.43-1.39h-5.61c0,.71-.2,1.06-.6,1.06-.16,0-.23-.08-.23-.23,0-.09.04-.18.13-.27.29-.22.44-.58.46-1.06.02-.13.07-.14.13-.03.02.07.04.18.07.33h2.52v-1.3l.6.1c.24.04.19.13-.17.27v.93h2.52l.27-.37.86.63c.18.16.12.23-.17.23-.27-.02-.47.03-.6.17l-.37.37c-.13.11-.18.09-.13-.07l.3-.76Z"/><path class="cls-3" d="m155.76,154.91c.18-.22.35-.48.53-.76h-1.13v.33c-.29.27-.43.28-.43.03v-2.52l.5.23h.6v-.63h-2.29v-.2h2.29v-.86l.56.1c.18.11.13.19-.13.23v.53h1.53v-.86l.56.1c.18.11.13.19-.13.23v.53h1.63l.5-.5.63.46c.13.11.13.19,0,.23h-2.76v.63h.7l.2-.27.46.33c.13.11.09.19-.13.23v1.76c-.29.27-.43.28-.43.03v-.17h-2.23c-.18.29-.35.54-.53.76h3.79l.5-.5.63.47c.13.11.13.19,0,.23h-2.43c.58.73,1.35,1.2,2.33,1.39-.27.13-.43.28-.5.43-.8-.38-1.47-.99-2.03-1.83h-2.42c-.8.84-1.72,1.47-2.76,1.89-.15.02-.18-.02-.07-.13.95-.49,1.73-1.07,2.33-1.76h-2.09v-.2h2.23Zm1.3.8l-.13.5h1.66l.2-.2.47.37c.09.11.01.19-.23.23-.09.62-.25,1.07-.5,1.36-.11.15-.29.25-.53.3-.16.04-.23,0-.23-.13,0-.07-.03-.13-.1-.2l-.43-.17c-.07-.07-.06-.1.03-.1l.73.1c.15-.02.27-.09.33-.2.15-.24.27-.63.33-1.16h-1.79c-.38,1.02-1.37,1.67-2.99,1.96-.13,0-.14-.04-.03-.13,1.44-.4,2.31-1.01,2.62-1.83h-1.13v-.2h1.2c.07-.27.13-.56.2-.9l.56.2c.13.07.06.13-.23.2Zm1.96-3.29h-3.85v.63h3.85v-.63Zm0,.83h-3.85v.7h3.85v-.7Zm-1.23-1.03v-.63h-1.53v.63h1.53Z"/><path class="cls-3" d="m162.01,155.14c-.18.07-.22.02-.13-.13,1.42-1.11,2.54-2.58,3.36-4.42l.7.2c.11.09.04.14-.2.17.93,1.35,2.27,2.3,4.02,2.86-.44.22-.66.4-.66.53-1.53-.86-2.69-1.94-3.49-3.22-.93,1.71-2.13,3.04-3.59,4.02Zm3.92,2.42h2.42l.5-.5.63.46c.13.11.13.19,0,.23h-7.14v-.2h3.16v-2.42h-2.43v-.2h2.43v-1.2h-1.23v-.2h2.09l.43-.43.53.4c.13.11.13.19,0,.23h-1.4v1.2h1.59l.5-.5.63.47c.13.11.13.19,0,.23h-2.72v2.42Zm-2.62-1.96c-.09-.11-.06-.14.1-.1.66.42,1.02.88,1.06,1.36,0,.16-.02.25-.07.3-.13.11-.24.09-.33-.07-.13-.62-.39-1.12-.76-1.5Zm4.58.37l-1.2,1.2c-.16.09-.19.04-.1-.13.35-.49.66-1.03.93-1.63l.6.43c.09.13.01.18-.23.13Z"/><path class="cls-3" d="m174.63,156.57c1,.55,2.1.86,3.32.93-.38.24-.61.42-.7.53-1.04-.2-2.02-.61-2.92-1.23-1,.71-2.26,1.16-3.79,1.36-.16-.02-.17-.08-.03-.17,1.57-.33,2.73-.81,3.49-1.43-.47-.42-.91-.97-1.33-1.66h-.93v-.2h3.85l.27-.27.63.47c.07.13-.08.18-.43.13-.51.64-.99,1.15-1.43,1.53Zm-3.55-2.03c-.09.16-.21.23-.37.23s-.23-.09-.23-.27c0-.13.04-.24.13-.33.29-.35.44-.76.46-1.23.04-.16.09-.17.13-.03l.07.37h3.89l.66-1.73.53.27c.18.11.13.19-.13.23l-.93,1.23h1.73l.3-.33.4.4c.27.27.23.37-.1.3-.09,0-.17.03-.23.1l-.6.5c-.09.04-.12.01-.1-.1l.37-.66h-5.78c.04.46-.02.82-.2,1.06Zm-.17-2.72c-.11,0-.12-.04-.03-.13,1.99-.27,3.69-.62,5.08-1.06l.7.37c.18.13,0,.18-.53.13-2.02.38-3.75.61-5.22.7Zm1.4.96c-.11-.29-.27-.53-.46-.73-.09-.11-.06-.14.1-.1.53.31.8.6.8.86,0,.15-.07.23-.2.23-.11,0-.19-.09-.23-.27Zm3.22,2.13h-2.66c.44.6.91,1.07,1.4,1.43.42-.33.84-.81,1.26-1.43Zm-1.26-2.19c0,.15-.07.23-.2.23-.07,0-.13-.04-.2-.13-.11-.44-.27-.75-.47-.93-.04-.07-.02-.1.07-.1.53.31.8.62.8.93Z"/><path class="cls-3" d="m180.57,153.18v4.68c-.29.27-.43.28-.43.03v-4.45c-.33.53-.72,1.01-1.16,1.43-.13.09-.17.05-.1-.1.82-1.13,1.46-2.52,1.93-4.18l.6.23c.2.09.13.18-.2.27-.22.58-.48,1.17-.76,1.79l.27.07c.18.11.13.19-.13.23Zm4.38,4.02c0,.27-.08.46-.23.6-.13.11-.29.18-.47.2-.13.02-.2-.03-.2-.17,0-.11-.06-.19-.17-.23l-.5-.13c-.11-.04-.11-.09,0-.13h.83c.2,0,.3-.1.3-.3v-3.85h-3.39v-.2h3.39v-2.29l.56.1c.18.11.13.19-.13.23v1.96h.5l.5-.5.63.47c.13.11.13.19,0,.23h-1.63v4.02Zm-3.16-3.02c-.11-.09-.09-.12.07-.1.82.35,1.23.8,1.23,1.33,0,.18-.08.27-.23.27-.11,0-.19-.07-.23-.2-.2-.58-.48-1.01-.83-1.3Z"/><path class="cls-3" d="m187.68,157.7c-.13.13-.17.1-.1-.1.29-.86.45-1.65.5-2.36l.56.13c.13.07.09.13-.13.2-.24.91-.52,1.62-.83,2.13Zm-.13-3.26l1.06-.07,1.36-2.69.56.37c.13.11.04.18-.27.2l-1.49,2.13,1.46-.17c-.11-.22-.24-.41-.4-.56-.11-.09-.09-.12.07-.1.22.13.41.28.56.43.24.24.37.46.37.66s-.06.3-.17.3c-.09,0-.15-.07-.2-.2-.07-.2-.12-.32-.17-.37l-.83.17v3.42c-.29.27-.43.28-.43.03v-3.39l-.93.2c-.04.22-.12.27-.23.13l-.33-.5Zm.1-2.16c-.11-.09-.09-.12.07-.1.18.04.37.13.56.27l.9-1.83.56.3c.13.11.04.18-.27.2l-1.1,1.39c.33.29.5.52.5.7,0,.2-.08.3-.23.3-.09,0-.17-.09-.23-.27-.16-.42-.41-.74-.76-.96Zm2.42,2.96c.29.27.49.49.6.66.13.22.2.46.2.73,0,.29-.07.43-.2.43-.11,0-.18-.12-.2-.37-.04-.55-.21-1.01-.5-1.36-.07-.13-.03-.17.1-.1Zm2.92-1.63c.55.53,1.33.97,2.33,1.33-.2.11-.34.27-.43.46-.78-.38-1.48-.89-2.13-1.53-.66.71-1.38,1.21-2.16,1.5-.11,0-.11-.04,0-.13.82-.51,1.46-1.05,1.93-1.63-.27-.35-.5-.79-.7-1.3-.33.51-.75.95-1.26,1.33-.13.04-.15,0-.07-.13.84-.82,1.41-1.79,1.69-2.92l.6.2c.09.11,0,.19-.27.23-.13.29-.29.58-.46.86h1.46l.27-.27.5.33c.09.11,0,.19-.27.23-.31.53-.65,1.01-1.03,1.43Zm-1.4,2.86c-.09-.07-.08-.1.03-.1.84.18,1.43.35,1.76.53.4.22.6.43.6.63,0,.15-.07.23-.2.23-.15,0-.38-.14-.66-.43-.22-.22-.73-.51-1.53-.86Zm2.09-.83c.11.13.11.24,0,.33-.09.07-.18.07-.27,0-.11-.09-.24-.18-.4-.27-.35-.22-.72-.39-1.1-.5-.07-.07-.06-.1.03-.1.95.11,1.53.29,1.73.53Zm-1.73-3.55l-.03.07c.27.53.53.94.8,1.23.31-.38.59-.81.83-1.3h-1.59Z"/><path class="cls-3" d="m202,151.62h-5.61v-.2h5.68l.4-.33.56.56c.15.16.12.23-.1.23h-.46l-2.26,1.16v4.38c0,.18-.11.33-.33.46-.18.11-.33.17-.46.17-.09,0-.13-.07-.13-.2,0-.16-.07-.24-.2-.27l-.6-.1c-.11-.04-.11-.09,0-.13h.9c.22,0,.33-.11.33-.33v-4.39l.5.2,1.79-1.23Z"/><path class="cls-3" d="m164.36,166.09c-.29.53-.62,1.06-1,1.59.27.33.51.57.73.7s.41.2.56.2c.09,0,.15-.05.2-.17l.33-.9c.07-.04.1-.04.1,0l-.17,1c0,.11.04.22.13.33.11.13.04.22-.2.27-.31,0-.62-.08-.93-.23-.4-.2-.75-.5-1.06-.9-.35.35-.68.63-.96.83-.13.04-.17.01-.1-.1.24-.2.54-.53.9-1-.35-.71-.58-1.57-.66-2.59h-3.42v1.3c0,1.44-.42,2.5-1.26,3.19-.11.07-.17.06-.17-.03.66-.82,1-1.76,1-2.82v-2.13l.53.3h3.29c-.02-.33-.04-.75-.07-1.26l.56.1c.22.07.18.14-.13.23,0,.29.01.6.03.93h1.49l.5-.5.63.46c.13.11.13.19,0,.23h-2.59c.09.91.27,1.66.53,2.26.4-.62.7-1.21.9-1.76l.53.33c.09.13.01.18-.23.13Zm-6.25,4.72c-.16,0-.23-.07-.23-.2,0-.16.09-.28.27-.37.46-.22.74-.62.83-1.2.07-.13.11-.13.13,0v.27c0,.53-.14.94-.43,1.23-.18.18-.37.27-.56.27Zm1.13-4.88h1.76l.43-.43.53.4c.13.11.13.19,0,.23h-2.72v-.2Zm.76.9h1.06l.2-.27.46.33c.13.11.09.19-.13.23v1.06c-.29.27-.43.28-.43.03v-.17h-1.23v.3c-.29.27-.43.28-.43.03v-1.86l.5.3Zm-.07,1.03h1.23v-.83h-1.23v.83Zm.4,3.22c-.27,0-.4-.13-.4-.4v-1.63l.56.1c.18.11.13.19-.13.23v1.16c0,.09.04.13.13.13h2.03c.2,0,.32-.08.37-.23l.2-.9s.08-.04.1,0v.9c0,.11.04.19.13.23.15.07.15.17,0,.3-.07.07-.27.1-.6.1h-2.39Zm1.36-1.4c-.11,0-.19-.05-.23-.17-.2-.44-.58-.77-1.13-1-.04-.07-.02-.1.07-.1.49.09.83.2,1.03.33.31.2.46.42.46.66,0,.18-.07.27-.2.27Zm1.36-5.98c-.09-.04-.09-.08,0-.1.8.09,1.2.32,1.2.7,0,.13-.07.2-.2.2-.07,0-.12-.03-.17-.1-.24-.33-.52-.56-.83-.7Zm2.03,6.98c0,.18-.09.27-.27.27-.09,0-.17-.09-.23-.27-.29-.71-.73-1.22-1.33-1.53-.07-.07-.06-.1.03-.1.66.2,1.14.46,1.43.8.24.29.37.57.37.83Z"/><path class="cls-3" d="m166.12,165.22h1.83l.37-.37.47.33c.13.11.13.19,0,.23h-2.66v-.2Zm.27-.9h1.3l.37-.37.47.33c.13.11.13.19,0,.23h-2.13v-.2Zm0,2.82h1.23l.37-.37.47.33c.13.11.13.19,0,.23h-2.06v-.2Zm.03-.93h1.16l.37-.37.47.33c.13.11.13.19,0,.23h-1.99v-.2Zm1.3,2.03l.2-.27.46.33c.13.11.09.19-.13.23v1.59c-.29.27-.43.28-.43.03v-.1h-.83v.7c-.29.27-.43.28-.43.03v-2.82l.5.27h.66Zm.1,1.63v-1.43h-.83v1.43h.83Zm3.26-1.86l-.17.1v2.39c0,.24-.08.43-.23.56-.09.09-.2.13-.33.13-.09,0-.13-.04-.13-.13,0-.11-.07-.19-.2-.23l-.43-.1c-.09-.04-.09-.09,0-.13h.66c.15,0,.23-.08.23-.23v-1.79c-.8,1.08-1.75,1.89-2.86,2.42-.13.02-.16-.02-.07-.13,1.22-.75,2.13-1.65,2.72-2.69l-1.26.3c-.09.24-.18.28-.27.1l-.3-.5h.66v-3.52l.43.27h.17l.23-1.2.43.13c.18.07.14.14-.1.23l-.4.83h.5l.2-.27.46.33c.13.11.09.19-.13.23v2.56l.2.13c.11.07.1.13-.03.2Zm-1.59-2.09h1v-.9h-1v.9Zm1,1v-.8h-1v.8h1Zm0,.2h-1v.93l1-.13v-.8Zm.8-1.2h1.43v-1.99l.56.1c.18.04.13.12-.13.23v1.66h.13l.37-.37.47.33c.09.11.09.19,0,.23h-.96v4.25c0,.24-.08.43-.23.56-.09.09-.2.13-.33.13-.09,0-.13-.04-.13-.13,0-.11-.07-.19-.2-.23l-.43-.1c-.09-.04-.09-.09,0-.13h.66c.15,0,.23-.08.23-.23v-4.12h-1.43v-.2Zm.13,1.26c.62.46.93.84.93,1.13,0,.22-.08.33-.23.33-.13,0-.21-.09-.23-.27-.09-.33-.28-.71-.56-1.13-.07-.11-.03-.13.1-.07Z"/><path class="cls-3" d="m175.33,168.68l1.56-4.02c.11-.09.17-.07.17.07l-1.2,3.82c-.11.42-.1,1,.03,1.73.02.18.03.32.03.43,0,.35-.11.53-.33.53s-.33-.18-.33-.53c0-.11.02-.28.07-.5.02-.18.03-.4.03-.67.04-.4-.06-.62-.3-.66l-.4-.07v-.13h.66Zm-.56-2.96c-.07-.07-.06-.1.03-.1.58.2.86.47.86.8,0,.2-.06.3-.17.3s-.19-.07-.23-.2c-.16-.42-.32-.69-.5-.8Zm.47-1.66c-.07-.07-.04-.1.07-.1.73.11,1.1.34,1.1.7,0,.2-.07.3-.2.3-.07,0-.12-.03-.17-.1-.22-.4-.49-.66-.8-.8Zm1.26,7.17c-.16,0-.17-.04-.03-.13,1.06-.51,1.74-1.01,2.03-1.5l.46.37c.09.13,0,.18-.27.13-.62.53-1.35.91-2.19,1.13Zm4.48-5.61l.5-.66h-3.82c0,.2-.03.39-.1.56-.09.22-.23.33-.43.33-.11,0-.17-.04-.17-.13,0-.11.03-.2.1-.27.27-.27.41-.6.43-1,.04-.13.09-.13.13,0,.02.11.03.21.03.3h1.56v-1.13l.56.1c.18.11.13.19-.13.23v.8h1.83l.23-.23.56.5c.2.22.14.31-.17.27-.22-.02-.43.04-.63.2l-.37.23.27.2c.13.11.13.19,0,.23h-1.79v.86h1.3l.2-.27.47.33c.13.11.09.19-.13.23v2.23c-.29.27-.43.28-.43.03v-.2h-3.19v.33c-.29.27-.43.28-.43.03v-2.96l.5.23h1.3v-.86h-1.63v-.2h2.89l.43-.43.13.1Zm-1.83,1.59h-1.36v.9h1.36v-.9Zm0,1.1h-1.36v.86h1.36v-.86Zm1.83-1.1h-1.4v.9h1.4v-.9Zm0,1.1h-1.4v.86h1.4v-.86Zm1.1,2.49c0,.2-.06.3-.17.3-.07,0-.17-.07-.3-.2-.46-.49-1.06-.85-1.79-1.1-.11-.09-.09-.13.07-.13.73.11,1.32.29,1.76.53.29.16.43.35.43.6Z"/><path class="cls-3" d="m183.17,169.27c1.24-.66,2.11-1.52,2.62-2.56h-2.52v-.2h2.59c.11-.22.21-.49.3-.8h-2.03v-.2h2.09c.07-.15.13-.41.2-.76h-2.92v-.2h2.96c.07-.31.12-.65.17-1.03l.66.13c.18.09.1.18-.23.27-.04.24-.09.45-.13.63h2.52l.5-.5.63.46c.13.11.13.19,0,.23h-3.69c-.07.31-.13.56-.2.76h2.03l.43-.43.53.4c.13.11.13.19,0,.23h-1.89c.13.29.29.55.46.8h1.56l.5-.5.63.46c.13.11.13.19,0,.23h-2.56c.53.78,1.42,1.41,2.66,1.89-.29.04-.52.17-.7.37-.97-.51-1.75-1.26-2.33-2.26h-1.76c-.53,1.15-1.54,2.05-3.02,2.69-.13,0-.15-.04-.07-.13Zm6.31,1.89c-1.08-.38-1.86-1.01-2.33-1.89h-.23c-.35,1.09-1.35,1.75-2.99,1.99-.11,0-.13-.04-.07-.13,1.48-.38,2.36-1,2.62-1.86h-1.89v-.2h1.96c.07-.27.1-.62.1-1.06h-.9v-.2h1.79l.37-.37.46.33c.13.11.13.19,0,.23h-1.3c0,.38-.03.73-.1,1.06h1.43l.4-.4.56.37c.13.11.13.19,0,.23h-1.99c.64.78,1.51,1.24,2.59,1.4-.22.15-.39.32-.5.5Zm-2.86-5.45c-.09.29-.19.55-.3.8h1.59c-.11-.2-.24-.46-.4-.8h-.9Z"/><path class="cls-3" d="m195.22,163.53l.73.3c.11.18,0,.23-.33.17.84,1.08,2.08,1.93,3.72,2.52-.27.09-.47.24-.6.46-1.46-.75-2.55-1.73-3.26-2.92-1.26,1.59-2.51,2.61-3.75,3.06-.11,0-.12-.04-.03-.13,1.46-.84,2.64-1.99,3.52-3.46Zm2.16,6.54c-.29-.29-.61-.57-.96-.83-.11-.09-.09-.12.07-.1.58.22,1.07.51,1.49.86.31.27.47.54.47.83,0,.22-.08.33-.23.33-.11,0-.21-.1-.3-.3-.07-.16-.2-.37-.4-.63l-4.52.46c-.13.42-.25.5-.37.23l-.33-.63,1.53-.03.66-1.89h-2.72v-.2h6.18l.43-.43.53.4c.13.11.13.19,0,.23h-3.85l-1,1.86,3.32-.17Zm-4.02-3.46h2.99l.37-.37.47.33c.13.11.13.19,0,.23h-3.82v-.2Z"/><path class="cls-3" d="m133.07,178.16c.02.09.04.2.07.33h3.99c.35-.62.64-1.21.86-1.76l.5.27c.42.2.37.31-.17.33-.35.42-.71.81-1.06,1.16h1.69l.2-.27.7.7c.18.18.04.23-.4.17l-.73.46c-.13.11-.18.09-.13-.07l.47-.8h-5.88c-.02.46-.11.81-.27,1.03-.11.16-.22.23-.33.23-.2,0-.3-.08-.3-.23,0-.09.07-.2.2-.33.31-.31.46-.72.46-1.23.02-.13.07-.13.13,0Zm3.29,3.42h2.39l.5-.5.63.46c.13.11.13.19,0,.23h-3.52v1.69c0,.27-.08.46-.23.6-.16.13-.29.2-.4.2-.13,0-.2-.07-.2-.2,0-.09-.06-.17-.17-.23l-.53-.1c-.11-.04-.11-.09,0-.13h.8c.2,0,.3-.1.3-.3v-1.53h-3.45v-.2h3.45v-.96l.43.23.9-.9h-3.39v-.2h3.49l.27-.27.53.53c.13.13,0,.18-.4.13l-1.4.83v.6Zm-1.86-3.72c0,.22-.09.33-.27.33-.07,0-.12-.08-.17-.23-.16-.44-.38-.75-.66-.93-.07-.09-.06-.13.03-.13.71.27,1.06.59,1.06.96Zm1.69-.2c0,.2-.07.3-.2.3-.11,0-.19-.07-.23-.2-.11-.42-.32-.76-.63-1.03-.16-.13-.13-.18.07-.13.66.27,1,.62,1,1.06Z"/><path class="cls-3" d="m141.81,180.16c-.35.71-.74,1.31-1.16,1.79-.11.07-.15.03-.13-.1.73-1.17,1.16-2.17,1.3-2.99v-.17h-1.23v-.2h1.23v-1.86l.56.1c.18.11.13.19-.13.23v1.53h.43l.37-.37.46.33c.13.11.13.19,0,.23h-1.26v1.1c.71.18,1.06.4,1.06.67,0,.18-.08.27-.23.27-.09,0-.17-.08-.23-.23-.11-.2-.31-.4-.6-.6v4.15c-.29.27-.43.28-.43.03v-3.92Zm5.08.3c-.27.64-.61,1.23-1.03,1.76.62.6,1.46,1.05,2.52,1.36-.24.09-.43.22-.56.4-.82-.29-1.55-.77-2.19-1.46-.71.78-1.72,1.32-3.02,1.63-.13.02-.17-.02-.1-.13,1.24-.4,2.2-.98,2.89-1.76-.33-.44-.65-1.05-.96-1.83l.33-.03c.27.69.54,1.21.83,1.56.44-.62.77-1.32,1-2.09l.63.4c.11.16,0,.22-.33.2Zm-1.76-1.53c.18.16.1.22-.23.2-.4.71-.86,1.33-1.4,1.86-.13.09-.18.06-.13-.1.58-.75.97-1.5,1.2-2.23l.56.27Zm.76-.86h1.26l.5-.5.63.47c.13.11.13.19,0,.23h-4.65v-.2h1.83v-1.43l.56.1c.18.11.13.19-.13.23v1.1Zm1.83,2.29c-.07,0-.16-.09-.27-.27-.35-.49-.85-.94-1.5-1.36-.07-.07-.04-.1.07-.1,1.28.51,1.93,1,1.93,1.46,0,.18-.08.27-.23.27Z"/><path class="cls-3" d="m151.64,176.53l.53.3c.11.09.04.14-.2.17l-.13.13c1.2.44,1.79.82,1.79,1.13,0,.18-.07.27-.2.27-.09,0-.17-.04-.23-.13-.22-.33-.7-.72-1.43-1.16-.31.42-.69.84-1.13,1.26h1.36l.37-.37.47.33c.13.11.13.19,0,.23h-2.39c-.58.44-1.09.78-1.53,1-.11,0-.13-.04-.07-.13,1.24-.77,2.17-1.78,2.79-3.02Zm-1.5,2.49l.5.23h2.23l.2-.27.47.33c.13.11.09.19-.13.23v1.89c-.29.27-.43.28-.43.03v-.17h-2.46c-.16.93-.64,1.79-1.46,2.59-.13.07-.18.04-.13-.07.82-1.08,1.23-2.15,1.23-3.19v-1.63Zm3.16,3.32v1.73c-.29.27-.43.28-.43.03v-.4h-1.96v.4c-.29.27-.43.28-.43.03v-2.36l.5.27h1.79l.2-.27.46.33c.13.11.09.19-.13.23Zm-.33-1.99h-2.39c0,.27-.01.52-.03.76h2.42v-.76Zm-2.39-.9v.7h2.39v-.7h-2.39Zm2.29,4.05v-1.26h-1.96v1.26h1.96Zm1.93-5.35v4.19c-.29.27-.43.28-.43.03v-4.55l.56.1c.18.07.13.14-.13.23Zm1.69-.9v6.08c0,.27-.08.46-.23.6-.07.07-.2.13-.4.2-.13.04-.2-.01-.2-.17,0-.13-.08-.22-.23-.27l-.53-.1c-.11-.04-.11-.09,0-.13h.86c.2,0,.3-.1.3-.3v-6.25l.56.1c.18.07.13.14-.13.23Z"/><path class="cls-3" d="m157.95,183.44v-.2h4.02c.51-1.51.89-2.9,1.13-4.19l.7.33c.33.16.25.24-.23.27-.44,1.24-.9,2.44-1.36,3.59h1.93l.5-.5.63.46c.13.11.13.19,0,.23h-7.31Zm3.29-4.98v-1.73l.4.07c.4.07.41.17.03.3v1.36h2.13l.5-.5.63.46c.13.11.13.19,0,.23h-6.71v-.2h3.02Zm-.43,3.62c0,.4-.08.6-.23.6-.18,0-.3-.24-.37-.73-.13-1.04-.54-1.92-1.23-2.62-.09-.13-.06-.17.1-.1.58.38,1.02.85,1.33,1.43.27.49.4.96.4,1.43Z"/><path class="cls-3" d="m169.38,177.73l-.1.5h-2.39l-.13,2.29c.42-.46.85-.7,1.3-.7.33,0,.63.13.9.4.35.35.53.82.53,1.39s-.19,1.01-.56,1.36c-.31.31-.72.46-1.23.46-.42,0-.76-.12-1.03-.37-.27-.24-.4-.52-.4-.83,0-.16.04-.28.13-.37s.19-.13.3-.13c.09,0,.17.03.23.1s.1.16.1.27c0,.13-.03.23-.1.3-.07.09-.1.18-.1.27,0,.11.06.22.17.33.15.13.4.2.73.2s.6-.1.8-.3c.27-.24.4-.65.4-1.23s-.13-1-.4-1.26c-.18-.18-.39-.27-.63-.27-.38,0-.74.24-1.1.73l-.3-.03.17-3.12h2.72Z"/><path class="cls-3" d="m173,178.06c.22.22.4.52.53.9.2.55.3,1.08.3,1.59,0,.55-.1,1.1-.3,1.63-.15.4-.33.69-.53.86-.27.27-.55.4-.86.4s-.6-.13-.86-.4c-.22-.2-.41-.49-.56-.86-.2-.51-.3-1.05-.3-1.63s.1-1.11.3-1.59c.15-.38.34-.67.56-.9.27-.24.55-.37.86-.37s.6.12.86.37Zm-1.36.1c-.4.4-.6,1.2-.6,2.39s.2,2.03.6,2.42c.15.13.32.2.5.2s.34-.07.5-.2c.38-.38.56-1.18.56-2.42s-.19-2.01-.56-2.39c-.15-.13-.32-.2-.5-.2s-.34.07-.5.2Z"/><path class="cls-3" d="m181.14,177.36h-5.05v3.49c0,1.17-.45,2.29-1.36,3.36-.11.07-.15.03-.13-.1.71-1.06,1.06-2.1,1.06-3.12v-4.15l.5.33h4.88l.2-.27.46.33c.13.11.09.19-.13.23v5.81c0,.27-.08.46-.23.6-.13.11-.28.18-.43.2-.13.02-.2-.03-.2-.17s-.06-.21-.17-.23l-.53-.13c-.11-.04-.11-.09,0-.13h.83c.2,0,.3-.1.3-.3v-5.75Zm-.66,1.4h-1.79v1.1h1.2l.37-.37.46.33c.13.11.13.19,0,.23h-4.09v-.2h1.63v-1.1h-1.5v-.2h1.5v-.86l.6.1c.24.04.19.13-.17.27v.5h.96l.37-.37.47.33c.13.11.13.19,0,.23Zm-3.02,2.06h2.06l.2-.27.47.33c.13.11.09.19-.13.23v1.63c-.29.27-.43.28-.43.03v-.23h-2.23v.46c-.29.27-.43.28-.43.03v-2.56l.5.33Zm2.16,1.53v-1.33h-2.23v1.33h2.23Z"/><path class="cls-3" d="m186.92,181.72h-3.52v-.2h1.2v-2.19l.5.33h1.83v-1.63h-1.89c-.46.95-1.1,1.73-1.89,2.33-.09.02-.11-.01-.07-.1,1-1.08,1.63-2.26,1.89-3.52l.63.23c.29.13.22.22-.2.27-.09.2-.18.4-.27.6h4.19l.43-.43.53.4c.13.11.13.19,0,.23h-2.92v1.63h1.66l.43-.43.53.4c.13.11.13.19,0,.23h-2.62v1.66h2.39l.5-.5.63.46c.13.11.13.19,0,.23h-3.52v2.39c-.29.27-.43.28-.43.03v-2.43Zm-1.89-1.86v1.66h1.89v-1.66h-1.89Z"/><path class="cls-3" d="m191.64,178.33h2.99l.43-.43.53.4c.13.11.13.19,0,.23h-3.95v-.2Zm.47-1.03h1.66l.43-.43.53.4c.13.11.13.19,0,.23h-2.62v-.2Zm.13,2.03h1.76l.37-.37.46.33c.13.11.13.19,0,.23h-2.59v-.2Zm0,1.06h1.79l.37-.37.46.33c.13.11.13.19,0,.23h-2.62v-.2Zm2.42,1.43v1.99c-.29.27-.43.28-.43.03v-.37h-1.4v.57c-.29.27-.43.28-.43.03v-2.89l.5.33h1.23l.2-.27.46.33c.13.11.09.19-.13.23Zm-1.83,1.46h1.4v-1.56h-1.4v1.56Zm3.29-.1c0,.09.04.13.13.13h2.16c.2,0,.34-.11.43-.33l.33-1.1s.08-.04.1,0l-.1,1.16c0,.11.04.2.13.27.13.09.11.19-.07.3-.11.07-.28.1-.5.1h-2.66c-.27,0-.4-.13-.4-.4v-3.75l.5.23h2.09v-2.09h-2.89v-.2h2.79l.2-.27.46.33c.13.11.09.19-.13.23v2.56c-.29.27-.43.28-.43.03v-.4h-2.16v3.19Z"/><path class="cls-3" d="m203.86,177.03c-1,1.44-2.21,2.55-3.65,3.32-.09.02-.11-.01-.07-.1,1.66-1.22,2.73-2.44,3.22-3.65l.83.13c.27.04.23.13-.1.27,1.06,1.33,2.35,2.14,3.85,2.42-.35.11-.58.29-.66.53-1.22-.49-2.36-1.46-3.42-2.92Zm-3.42,6.78c-.18,0-.27-.1-.27-.3,0-.13.1-.28.3-.43.35-.29.58-.7.66-1.23.04-.13.09-.13.13,0-.02.8-.12,1.34-.3,1.63-.13.22-.31.33-.53.33Zm1.2-3.65v-.2h3.26l.23-.27.56.4c.11.16.01.22-.3.2l-.33,1.29c-.24.18-.39.18-.43,0l.33-1.43h-3.32Zm1,3.42c0,.09.04.13.13.13h2.33c.2,0,.33-.11.4-.33l.3-1.1s.08-.04.1,0l-.07,1.16c0,.09.04.18.13.27.13.11.12.21-.03.3-.11.07-.28.1-.5.1h-2.82c-.27,0-.4-.13-.4-.4v-1.93l.56.1c.18.11.13.19-.13.23v1.46Zm-.17-4.65h1.66l.37-.37.47.33c.13.11.13.19,0,.23h-2.49v-.2Zm1.79,3.06c.09.11.13.23.13.37s-.08.2-.23.2c-.11,0-.21-.1-.3-.3-.2-.42-.48-.74-.83-.96-.07-.07-.06-.1.03-.1.55.22.95.49,1.2.8Zm1.96-.2c-.11-.09-.09-.12.07-.1.51.31.84.54,1,.7.31.31.47.58.47.8,0,.18-.08.27-.23.27-.13,0-.25-.12-.37-.37-.22-.46-.53-.9-.93-1.3Z"/><path class="cls-3" d="m213.26,178.46c.11,1.79.63,3.16,1.56,4.09.4.4.72.6.96.6.11,0,.18-.04.2-.13l.37-1.1c.09-.13.14-.11.17.07l-.2,1.26c0,.11.05.21.17.3.07.04.1.1.1.17,0,.11-.09.17-.27.17-.6,0-1.21-.31-1.83-.93-1.02-1.02-1.57-2.51-1.66-4.48h-4.05v-.2h4.05c-.02-.82-.03-1.36-.03-1.63l.6.1c.27.04.21.13-.17.27,0,.13.01.55.03,1.26h1.99l.5-.5.63.46c.13.11.13.19,0,.23h-3.12Zm-2.33,3.99c.64-.13,1.3-.29,1.96-.46.13.04.14.1.03.17-1.13.38-2.27.74-3.42,1.1-.04.29-.13.34-.27.17l-.43-.6c.58-.09,1.14-.19,1.69-.3v-2.19h-1.69v-.2h2.79l.43-.43.53.4c.13.11.13.19,0,.23h-1.63v2.13Zm4.12-4.65c0,.13-.07.2-.2.2-.11,0-.19-.07-.23-.2-.13-.22-.32-.42-.57-.6-.07-.07-.04-.1.07-.1.62.16.93.39.93.7Z"/><path class="cls-3" d="m219.64,182.48l.53.27c.33.2.23.28-.3.23-.84.55-1.72.99-2.62,1.3-.13,0-.14-.06-.03-.17,1.22-.64,2.03-1.18,2.42-1.63Zm4.02-.43h.37l.43-.43.53.4c.13.11.13.19,0,.23h-7.74v-.2h1.03v-4.15l.5.27h1.13v-1.56l.56.1c.18.11.13.19-.13.23v1.23h1.16v-1.53l.56.1c.18.11.13.19-.13.23v1.2h1.2l.2-.27.46.33c.13.11.09.19-.13.23v3.59Zm-4.95-3.69v1.66h1.2v-1.66h-1.2Zm1.2,1.86h-1.2v1.83h1.2v-1.83Zm1.59-1.86h-1.16v1.66h1.16v-1.66Zm0,1.86h-1.16v1.83h1.16v-1.83Zm.4,2.26c1.22.24,2.04.58,2.46,1,.09.09.13.19.13.3,0,.16-.08.23-.23.23-.09,0-.17-.03-.23-.1-.58-.55-1.29-.98-2.16-1.29-.09-.07-.08-.11.03-.13Zm.03-4.12v1.66h1.3v-1.66h-1.3Zm1.3,1.86h-1.3v1.83h1.3v-1.83Z"/><path class="cls-3" d="m275.29,164.96c.37-.02.72-.07,1.05-.13.82-.15,1.53-.22,2.14-.2.14-.09.24-.18.3-.27.22.31.29.42.23.33.14.2.21.33.21.4s-.04.1-.12.1c-.05,0-.11-.01-.19-.03-.34.31-.96.83-1.86,1.56-.17,1.73-.78,3.01-1.84,3.85-.11.04-.15.01-.12-.1.96-.93,1.49-2.16,1.58-3.69.05-.46-.02-.73-.21-.8-.11-.04-.12-.09-.05-.13.22-.02.4.05.56.23.08.09.11.2.09.33.61-.51,1.11-1.04,1.51-1.59-.96.07-1.77.18-2.42.33-.54.13-.85.23-.91.3s-.12.1-.19.1c-.05,0-.14-.09-.28-.27-.16-.2-.23-.38-.23-.53,0-.13.04-.17.12-.1.09.22.29.32.6.3Z"/><path class="cls-3" d="m280.92,170.97c-.09,0-.12-.04-.07-.13,1.05-.89,1.82-1.87,2.3-2.96-.34-.44-.78-.74-1.33-.9-.34.53-.72,1.01-1.14,1.43-.08,0-.09-.04-.05-.13.85-1.04,1.42-2.2,1.7-3.49.05-.2-.04-.34-.26-.43-.06-.04-.06-.09,0-.13.17-.02.32.01.44.1.22.16.33.29.33.4,0,.07-.02.1-.07.1s-.09.04-.12.13c-.05.13-.1.29-.16.46.51-.04,1.01-.1,1.51-.17.08-.09.15-.19.21-.3.08.04.18.13.3.27.09.09.14.17.14.23s-.03.11-.09.13c-.08.02-.15.12-.21.3-.19.58-.43,1.18-.74,1.83.19.18.27.37.26.57-.02.16-.05.23-.12.23s-.18-.12-.35-.37c-.71,1.28-1.54,2.23-2.49,2.82Zm3.12-5.28c.03-.11.02-.18-.05-.2-.51.04-.97.09-1.37.13-.06-.02-.11-.05-.14-.1-.2.53-.4.96-.58,1.3.6.13,1.08.35,1.44.66.29-.6.53-1.2.7-1.79Zm1.12-.63c0,.16-.05.23-.14.23-.06,0-.16-.15-.3-.46-.06-.13-.22-.34-.46-.63-.03-.04-.02-.08.02-.1.22.09.44.24.67.46.14.13.21.3.21.5Zm.35-.56c-.06,0-.11-.02-.14-.07-.06-.09-.12-.2-.19-.33-.11-.18-.26-.34-.44-.5-.05-.07-.04-.1.02-.1.36.09.6.22.72.4.09.13.14.28.14.43,0,.11-.04.17-.12.17Z"/><path class="cls-3" d="m289.92,164.89c.12.11.24.23.35.37.06.07.09.14.09.23,0,.07-.07.1-.21.1-.29.67-.6,1.27-.93,1.83.53.24.95.6,1.28,1.06.26.38.4.68.4.9,0,.2-.06.3-.19.3-.06,0-.14-.11-.23-.33-.14-.33-.3-.63-.49-.9-.22-.31-.5-.62-.84-.93-.78,1.11-1.64,1.94-2.58,2.49-.14.02-.16-.02-.07-.13,1.5-1.13,2.58-2.59,3.23-4.38.02-.09-.02-.13-.09-.13-1.16.22-1.78.4-1.84.53-.03.07-.07.1-.12.1-.03,0-.1-.07-.21-.2-.23-.29-.33-.51-.3-.67,0-.11.03-.12.09-.03.08.2.19.3.35.3.37,0,1.07-.09,2.09-.27.08-.09.15-.17.21-.23Z"/><path class="cls-3" d="m295.38,166.88c.37.16.67.35.88.6.23.27.35.49.35.67,0,.2-.05.3-.16.3-.06,0-.15-.1-.26-.3-.31-.58-.83-1.02-1.56-1.33v3.69c0,.24-.04.37-.12.37-.09,0-.17-.1-.23-.3-.05-.16-.04-.38.02-.67.05-.75.06-2.45.05-5.08,0-.22-.02-.39-.07-.5-.05-.09-.16-.14-.33-.17-.06-.04-.06-.09,0-.13.11-.04.26-.03.44.03.12.07.23.14.33.23s.14.18.14.27c0,.07-.03.11-.09.13-.06.02-.09.08-.09.17-.05.58-.06,1.18-.05,1.83.19.02.43.09.74.2Z"/><path class="cls-3" d="m299.36,170.94c-.09-.04-.1-.11-.02-.2,1.41-.8,2.11-2.03,2.09-3.69v-2.33c-.02-.18-.05-.31-.09-.4s-.15-.14-.3-.17c-.03-.04-.02-.08.02-.1.25-.04.47,0,.67.13.14.09.21.17.21.23,0,.11-.07.22-.21.33v2.29c.01,1.86-.78,3.16-2.37,3.89Zm.28-6.31c-.06-.09-.16-.14-.28-.17-.06-.04-.06-.09,0-.13.25-.02.46.03.63.17.12.07.19.14.19.23,0,.07-.02.11-.07.13-.05.02-.07.12-.07.3v2.56c.02.35-.03.53-.14.53-.05,0-.09-.06-.14-.17-.06-.13-.09-.23-.07-.3.02-.15.03-.34.05-.56v-2.23c0-.15-.03-.28-.09-.37Z"/><path class="cls-3" d="m305.06,164.96c.37-.02.72-.07,1.05-.13.82-.15,1.53-.22,2.14-.2.14-.09.24-.18.3-.27.22.31.29.42.23.33.14.2.21.33.21.4s-.04.1-.12.1c-.05,0-.11-.01-.19-.03-.34.31-.96.83-1.86,1.56-.17,1.73-.78,3.01-1.84,3.85-.11.04-.15.01-.12-.1.96-.93,1.49-2.16,1.58-3.69.05-.46-.02-.73-.21-.8-.11-.04-.12-.09-.05-.13.22-.02.4.05.56.23.08.09.11.2.09.33.61-.51,1.11-1.04,1.51-1.59-.96.07-1.77.18-2.42.33-.54.13-.85.23-.91.3s-.12.1-.19.1c-.05,0-.14-.09-.28-.27-.16-.2-.23-.38-.23-.53,0-.13.04-.17.12-.1.09.22.29.32.6.3Z"/><path class="cls-3" d="m314.99,169.08c-.23-.18-.58-.4-1.05-.66-.37,1.35-.88,2.25-1.51,2.69-.08.04-.1.02-.07-.07.59-.64,1.03-1.56,1.33-2.76-.64-.31-1.25-.48-1.86-.5-.25.78-.47,1.31-.67,1.59-.17.24-.36.37-.56.37-.15,0-.27-.05-.35-.17-.09-.13-.14-.31-.14-.53,0-.2.06-.4.19-.6.29-.46.74-.75,1.35-.86.23-.75.49-1.68.77-2.79.03-.11,0-.17-.07-.17-.26.13-.52.25-.77.37-.17.07-.29.14-.35.23-.09.11-.18.1-.26-.03-.19-.31-.28-.55-.28-.73-.02-.11,0-.13.07-.07.09.27.21.4.35.4.08,0,.18-.02.3-.07.36-.11.71-.23,1.07-.37l.09-.17c.17.07.29.16.37.27.08.11.05.2-.09.27-.08.04-.16.19-.23.43-.23.82-.47,1.62-.72,2.39.68.02,1.3.16,1.86.4.05-.13.1-.38.16-.73.02-.09.03-.27.05-.53s-.07-.44-.26-.53c-.09-.04-.09-.09,0-.13.25,0,.49.14.72.43.11.13.11.23,0,.3-.09.04-.16.19-.21.43-.08.38-.15.67-.21.86.68.31,1.07.51,1.16.6.08.07.12.18.12.33,0,.13-.04.2-.12.2-.05,0-.11-.03-.19-.1Zm-4.49-.56c-.12.18-.19.38-.19.6,0,.29.09.43.28.43.14,0,.28-.1.42-.3.12-.18.31-.65.56-1.43-.5.16-.85.39-1.07.7Z"/><path class="cls-3" d="m317.19,170.2c-.17-.24-.26-.52-.26-.83,0-.35.12-.7.37-1.03s.56-.64.93-.93c-.19-.31-.28-.75-.28-1.33,0-1.02-.02-1.58-.05-1.69-.06-.22-.17-.33-.33-.33-.06-.04-.06-.09,0-.13.26-.04.5.06.72.3.08.09.08.18.02.27-.05.07-.07.2-.07.4v1.73c0,.38.04.61.12.7.43-.27.88-.5,1.35-.7.12-.04.15-.15.07-.33-.03-.07-.08-.13-.16-.2-.06-.04-.05-.08.02-.1.19.02.33.12.42.3.11.2.16.37.16.5,0,.11-.06.17-.19.17-.68.2-1.27.46-1.77.8-.42.29-.74.6-.95.93-.14.22-.21.44-.21.66,0,.46.19.78.58.93.17.07.51.1,1.02.1.45,0,.77-.04.95-.13.17-.09.29-.09.37,0,.06.07.09.14.09.23s-.05.14-.14.17c-.28.07-.8.1-1.56.1-.59,0-1.01-.18-1.26-.53Z"/><path class="cls-3" d="m322.92,164.96c.37-.02.72-.07,1.05-.13.82-.15,1.53-.22,2.14-.2.14-.09.24-.18.3-.27.22.31.29.42.23.33.14.2.21.33.21.4s-.04.1-.12.1c-.05,0-.11-.01-.19-.03-.34.31-.96.83-1.86,1.56-.17,1.73-.78,3.01-1.84,3.85-.11.04-.15.01-.12-.1.96-.93,1.49-2.16,1.58-3.69.05-.46-.02-.73-.21-.8-.11-.04-.12-.09-.05-.13.22-.02.4.05.56.23.08.09.11.2.09.33.61-.51,1.11-1.04,1.51-1.59-.96.07-1.77.18-2.42.33-.54.13-.85.23-.91.3s-.12.1-.19.1c-.05,0-.14-.09-.28-.27-.16-.2-.23-.38-.23-.53,0-.13.04-.17.12-.1.09.22.29.32.6.3Z"/><path class="cls-3" d="m329.12,170.94c-.09-.04-.1-.11-.02-.2,1.41-.8,2.11-2.03,2.09-3.69v-2.33c-.02-.18-.05-.31-.09-.4s-.15-.14-.3-.17c-.03-.04-.02-.08.02-.1.25-.04.47,0,.67.13.14.09.21.17.21.23,0,.11-.07.22-.21.33v2.29c.01,1.86-.78,3.16-2.37,3.89Zm.28-6.31c-.06-.09-.16-.14-.28-.17-.06-.04-.06-.09,0-.13.25-.02.46.03.63.17.12.07.19.14.19.23,0,.07-.02.11-.07.13-.05.02-.07.12-.07.3v2.56c.02.35-.03.53-.14.53-.05,0-.09-.06-.14-.17-.06-.13-.09-.23-.07-.3.02-.15.03-.34.05-.56v-2.23c0-.15-.03-.28-.09-.37Z"/><path class="cls-3" d="m336.43,167.41c-.43.02-.9.06-1.4.1-.28.02-.43.06-.46.1-.06.09-.12.13-.16.13-.02,0-.07-.07-.16-.2-.11-.15-.19-.3-.23-.43-.08-.22-.11-.43-.09-.63.03-.09.06-.1.09-.03.08.31.16.5.26.56.09.07.22.1.37.1.46,0,1.09-.01,1.88-.03.79-.02,1.29-.04,1.49-.07.17-.02.27-.05.3-.1.05-.07.09-.1.14-.1.14,0,.26.08.37.23.11.16.16.24.16.27.03.13-.02.19-.14.17-.2-.04-.39-.07-.58-.07-.68-.02-1.29-.02-1.84,0Z"/><path class="cls-3" d="m341.05,170.77c-.06,0-.08-.03-.05-.1.99-1,1.46-2.45,1.4-4.35-1.22.16-1.86.3-1.91.43-.03.07-.07.1-.12.1s-.09-.03-.14-.1c-.26-.33-.39-.6-.37-.8.02-.16.05-.18.09-.07.09.24.22.37.37.37.36,0,1.05-.07,2.07-.2v-1.43c0-.24-.13-.41-.4-.5-.06-.04-.06-.08,0-.1.14-.07.31-.04.51.07.26.13.39.27.37.4,0,.07-.02.1-.07.1-.06.04-.09.16-.09.33v1.1c.99,0,1.54-.11,1.65-.33.12.04.25.12.37.23.17.13.26.27.26.4,0,.07-.07.08-.21.03-.57-.11-1.26-.13-2.07-.07.06,2.13-.5,3.62-1.67,4.48Z"/><path class="cls-3" d="m284.21,179.26h-.17c.02,2.3-1.14,3.89-3.49,4.75-.16.02-.18-.03-.07-.17,2.04-.91,3.08-2.44,3.12-4.58h-3.06v-.2h3.06v-2.39l.56.1c.18.11.13.19-.13.23v2.06h2.66l.5-.5.63.46c.13.11.13.19,0,.23h-3.42c.38,1.95,1.57,3.37,3.59,4.25-.35.07-.62.19-.8.37-1.71-1.02-2.7-2.56-2.99-4.62Z"/><path class="cls-3" d="m289.66,180.16c-.09,0-.16-.07-.2-.2-.13-.33-.34-.61-.63-.83-.09-.09-.06-.12.1-.1.67.27,1,.53,1,.8,0,.22-.09.33-.27.33Zm1.69-2.59l-1.29,4.22c-.09.29-.08.72.03,1.3.04.24.07.45.07.63,0,.24-.11.37-.33.37-.16,0-.25-.08-.3-.23-.04-.13-.03-.34.03-.63.02-.27.03-.46.03-.6,0-.35-.12-.56-.37-.63l-.4-.07v-.13h.8l1.56-4.29c.13-.11.19-.09.17.07Zm-.9.27c0,.2-.08.3-.23.3-.13,0-.23-.08-.3-.23-.18-.27-.41-.48-.7-.63-.11-.09-.1-.13.03-.13.8.18,1.2.41,1.2.7Zm3.32,2.52h-.93v.37c0,1.68-.82,2.83-2.46,3.46-.13,0-.16-.04-.07-.13,1.4-.73,2.09-1.82,2.09-3.26v-.43h-1.5v-.2h2.29v-1.73h-1.1c-.29.58-.6,1.05-.93,1.43-.11.07-.16.04-.13-.07.49-.8.81-1.68.96-2.66l.6.23c.33.13.27.23-.2.3l-.23.57h1.03v-1.56l.57.1c.18.11.13.19-.13.23v1.23h1.23l.43-.43.53.4c.13.11.13.19,0,.23h-2.19v1.73h1.76l.5-.5.63.47c.13.11.13.19,0,.23h-2.33v2.76c0,.09.04.13.13.13h1.33c.22,0,.35-.11.4-.33l.23-1.1s.08-.04.1,0v1.16c0,.11.04.2.13.27.13.11.12.21-.03.3-.11.07-.28.1-.5.1h-1.83c-.27,0-.4-.13-.4-.4v-2.89Z"/><path class="cls-3" d="m300.89,177.7v-1.06l.56.1c.18.11.13.19-.13.23v.73h2.23l.5-.5.63.46c.13.11.13.19,0,.23h-7.11v-.2h3.32Zm-2.39,2.96h5.31l.2-.27.47.33c.13.11.09.19-.13.23v2.56c0,.24-.08.43-.23.57-.09.09-.2.13-.33.13-.09,0-.13-.04-.13-.13,0-.11-.07-.19-.2-.23l-.43-.1c-.09-.04-.09-.09,0-.13h.66c.16,0,.23-.08.23-.23v-2.52h-5.51v3.19c-.29.27-.43.28-.43.03v-3.75l.53.33Zm1.36-1.99h2.62l.2-.27.46.33c.13.11.09.19-.13.23v1.16c-.29.27-.43.28-.43.03v-.27h-2.79v.33c-.29.27-.43.28-.43.03v-1.89l.5.3Zm2.16,2.82l.2-.23.43.3c.13.11.09.19-.13.23v1.43c-.29.27-.43.28-.43.03v-.43h-1.99v.43c-.29.27-.43.28-.43.03v-2.03l.5.23h1.86Zm-2.23-2.62v.83h2.79v-.83h-2.79Zm.3,2.82v.93h1.99v-.93h-1.99Z"/><path class="cls-3" d="m306.97,180.16c-.35.71-.74,1.31-1.16,1.79-.11.07-.16.03-.13-.1.73-1.17,1.16-2.17,1.3-2.99v-.17h-1.23v-.2h1.23v-1.86l.56.1c.18.11.13.19-.13.23v1.53h.43l.37-.37.47.33c.13.11.13.19,0,.23h-1.26v1.1c.71.18,1.06.4,1.06.67,0,.18-.08.27-.23.27-.09,0-.17-.08-.23-.23-.11-.2-.31-.4-.6-.6v4.15c-.29.27-.43.28-.43.03v-3.92Zm5.08.3c-.27.64-.61,1.23-1.03,1.76.62.6,1.46,1.05,2.52,1.36-.24.09-.43.22-.56.4-.82-.29-1.55-.77-2.19-1.46-.71.78-1.72,1.32-3.02,1.63-.13.02-.17-.02-.1-.13,1.24-.4,2.2-.98,2.89-1.76-.33-.44-.65-1.05-.96-1.83l.33-.03c.27.69.54,1.21.83,1.56.44-.62.77-1.32,1-2.09l.63.4c.11.16,0,.22-.33.2Zm-1.76-1.53c.18.16.1.22-.23.2-.4.71-.86,1.33-1.39,1.86-.13.09-.18.06-.13-.1.58-.75.97-1.5,1.2-2.23l.56.27Zm.76-.86h1.26l.5-.5.63.47c.13.11.13.19,0,.23h-4.65v-.2h1.83v-1.43l.57.1c.18.11.13.19-.13.23v1.1Zm1.83,2.29c-.07,0-.16-.09-.27-.27-.35-.49-.85-.94-1.49-1.36-.07-.07-.04-.1.07-.1,1.28.51,1.93,1,1.93,1.46,0,.18-.08.27-.23.27Z"/><path class="cls-3" d="m316.1,176.57l.66.33c.22.16.14.23-.23.23-.22.6-.48,1.21-.76,1.83l.2.1c.18.11.13.19-.13.23v4.75c-.29.27-.43.28-.43.03v-4.52c-.22.4-.51.8-.86,1.2-.13.07-.18.03-.13-.1.8-1.22,1.36-2.58,1.69-4.09Zm3.06,2.09h-.07v3.46h.83l.37-.37.46.33c.13.11.13.19,0,.23h-1.66v1.73c-.29.27-.43.28-.43.03v-1.76h-1.56v-.2h1.56v-2.79c-.66,1.24-1.46,2.3-2.39,3.19-.16.07-.19.02-.1-.13,1.13-1.35,1.87-2.59,2.23-3.72h-2.03v-.2h2.29v-1.79l.57.1c.18.11.13.19-.13.23v1.46h1.83l.5-.5.63.46c.13.11.13.19,0,.23h-2.72c.46,1.4,1.41,2.55,2.82,3.46-.24.13-.43.28-.56.43-1.22-1.02-2.03-2.31-2.43-3.89Z"/><path class="cls-3" d="m327.66,178.13c.91.31,1.58.64,2.03,1,.2.16.3.32.3.5s-.07.27-.2.27c-.09,0-.2-.08-.33-.23-.18-.2-.34-.37-.5-.5l-4.98.43c-.09.33-.19.41-.3.23l-.37-.63,2.09-.03.67-1.26h-3.06v-.2h3.39v-1.23l.56.1c.18.07.13.14-.13.23v.9h2.52l.5-.5.63.46c.13.11.13.19,0,.23h-3.95l.13.13c.09.13,0,.18-.27.13l-.83,1,3.22-.17c-.29-.24-.7-.5-1.23-.76-.07-.09-.03-.12.1-.1Zm-2.96,1.79l.5.3h3.16l.2-.27.46.33c.13.11.09.19-.13.23v2.86c0,.27-.08.46-.23.6-.09.09-.24.16-.46.2-.09.02-.13-.03-.13-.17s-.08-.22-.23-.27l-.47-.1c-.11-.04-.11-.09,0-.13h.8c.2,0,.3-.1.3-.3v-.73h-3.32v1.66c-.29.27-.43.28-.43.03v-4.25Zm.43.5v.83h3.32v-.83h-3.32Zm0,1.03v.83h3.32v-.83h-3.32Z"/><path class="cls-3" d="m332.15,178.96l.37.2h.46v-.93l.56.1c.18.11.13.19-.13.23v.6h.3l.2-.27.47.33c.13.11.09.19-.13.23v2.26c-.29.27-.43.28-.43.03v-.33h-1.36v1.79l1.53-.33c-.15-.24-.35-.48-.6-.7-.04-.09-.02-.12.07-.1.46.27.8.51,1,.73.18.2.27.39.27.56,0,.2-.06.3-.17.3-.09,0-.16-.06-.2-.17-.07-.18-.14-.33-.23-.46l-2.16.7c-.09.31-.18.35-.27.13l-.33-.5.67-.1v-4.19c-.22.29-.49.58-.8.86-.09.04-.13.01-.13-.1.8-.97,1.37-2.03,1.73-3.16l.66.23c.13.07.06.13-.23.2l-.1.13c.62.22,1.03.45,1.23.7.09.11.13.23.13.37,0,.16-.07.23-.2.23-.09,0-.18-.1-.27-.3-.2-.4-.51-.7-.93-.9-.29.6-.61,1.13-.96,1.59Zm1.66,1.23v-.83h-1.36v.83h1.36Zm-1.36,1.03h1.36v-.83h-1.36v.83Zm5.71-2.39c-.09.07-.13.04-.13-.07l.3-.73h-3.02c0,.31-.06.56-.17.76-.07.11-.17.17-.3.17s-.2-.07-.2-.2c0-.09.04-.18.13-.27.2-.2.31-.53.33-1,0-.11.04-.12.13-.03.02.13.03.25.03.37h1.23v-1.16l.56.1c.18.11.13.19-.13.23v.83h1.36l.2-.27.63.53c.07.09.04.14-.07.17-.04,0-.17.01-.37.03l-.53.53Zm0,.76v1.4c-.29.27-.43.28-.43.03v-.27h-1.93v1.03h2.03l.2-.27.47.33c.13.11.09.19-.13.23v1.69c-.29.27-.43.28-.43.03v-.37h-2.13v.73c-.29.22-.43.21-.43-.03v-5.18l.5.33h1.76l.2-.27.46.33c.13.11.09.19-.13.23Zm-.43-.1h-1.93v1.06h1.93v-1.06Zm.2,2.49h-2.13v1.26h2.13v-1.26Z"/></svg>