<?xml version="1.0" encoding="utf-8"?>
<!-- Generator: Adobe Illustrator 26.5.0, SVG Export Plug-In . SVG Version: 6.00 Build 0)  -->
<svg version="1.1" id="レイヤー_1" xmlns="http://www.w3.org/2000/svg" xmlns:xlink="http://www.w3.org/1999/xlink" x="0px"
	 y="0px" viewBox="0 0 384.68 405.1" style="enable-background:new 0 0 384.68 405.1;" xml:space="preserve">
<style type="text/css">
	.st0{fill:none;stroke:#000000;stroke-width:0.1417;stroke-miterlimit:10;}
	.st1{fill:none;stroke:#000000;stroke-width:0.4252;stroke-miterlimit:10;}
	.st2{font-family:'MS-Mincho';}
	.st3{font-size:11.3386px;}
</style>
<rect x="11.5" y="10.39" class="st0" width="83.1" height="13.41"/>
<rect x="94.61" y="10.39" class="st0" width="124.2" height="13.41"/>
<rect x="218.8" y="10.39" class="st0" width="83.35" height="13.41"/>
<rect x="302.16" y="10.39" class="st0" width="71.68" height="13.41"/>
<rect x="11.5" y="23.8" class="st0" width="83.1" height="13.41"/>
<rect x="94.61" y="23.8" class="st0" width="124.2" height="13.41"/>
<rect x="218.8" y="23.8" class="st0" width="83.35" height="13.41"/>
<rect x="302.16" y="23.8" class="st0" width="71.68" height="13.41"/>
<rect x="11.5" y="37.21" class="st0" width="83.1" height="13.41"/>
<rect x="94.61" y="37.21" class="st0" width="124.2" height="13.41"/>
<rect x="218.8" y="37.21" class="st0" width="83.35" height="13.41"/>
<rect x="302.16" y="37.21" class="st0" width="71.68" height="13.41"/>
<rect x="11.5" y="50.62" class="st0" width="83.1" height="13.41"/>
<rect x="94.61" y="50.62" class="st0" width="124.2" height="13.41"/>
<rect x="218.8" y="50.62" class="st0" width="83.35" height="13.41"/>
<rect x="302.16" y="50.62" class="st0" width="71.68" height="13.41"/>
<polyline class="st0" points="11.5,77.44 11.5,64.03 94.61,64.03 94.61,77.44 "/>
<rect x="94.61" y="64.03" class="st0" width="124.2" height="13.41"/>
<rect x="218.8" y="64.03" class="st0" width="83.35" height="13.41"/>
<rect x="302.16" y="64.03" class="st0" width="71.68" height="13.41"/>
<line class="st0" x1="11.5" y1="90.84" x2="11.5" y2="77.44"/>
<line class="st0" x1="94.61" y1="77.44" x2="94.61" y2="90.84"/>
<rect x="94.61" y="77.44" class="st0" width="124.2" height="13.41"/>
<rect x="218.8" y="77.44" class="st0" width="83.35" height="13.41"/>
<rect x="302.16" y="77.44" class="st0" width="71.68" height="13.41"/>
<line class="st0" x1="11.5" y1="104.25" x2="11.5" y2="90.84"/>
<line class="st0" x1="94.61" y1="90.84" x2="94.61" y2="104.25"/>
<rect x="94.61" y="90.84" class="st0" width="124.2" height="13.41"/>
<rect x="218.8" y="90.84" class="st0" width="83.35" height="13.41"/>
<rect x="302.16" y="90.84" class="st0" width="71.68" height="13.41"/>
<polyline class="st0" points="94.61,104.25 94.61,117.66 11.5,117.66 11.5,104.25 "/>
<rect x="94.61" y="104.25" class="st0" width="124.2" height="13.41"/>
<rect x="218.8" y="104.25" class="st0" width="83.35" height="13.41"/>
<rect x="302.16" y="104.25" class="st0" width="71.68" height="13.41"/>
<polyline class="st0" points="11.5,131.07 11.5,117.66 94.61,117.66 94.61,131.07 "/>
<rect x="94.61" y="117.66" class="st0" width="124.2" height="13.41"/>
<rect x="218.8" y="117.66" class="st0" width="83.35" height="13.41"/>
<rect x="302.16" y="117.66" class="st0" width="71.68" height="13.41"/>
<line class="st0" x1="11.5" y1="144.48" x2="11.5" y2="131.07"/>
<line class="st0" x1="94.61" y1="131.07" x2="94.61" y2="144.48"/>
<rect x="94.61" y="131.07" class="st0" width="124.2" height="13.41"/>
<rect x="218.8" y="131.07" class="st0" width="83.35" height="13.41"/>
<rect x="302.16" y="131.07" class="st0" width="71.68" height="13.41"/>
<line class="st0" x1="11.5" y1="157.89" x2="11.5" y2="144.48"/>
<line class="st0" x1="94.61" y1="144.48" x2="94.61" y2="157.89"/>
<rect x="94.61" y="144.48" class="st0" width="124.2" height="13.41"/>
<rect x="218.8" y="144.48" class="st0" width="83.35" height="13.41"/>
<rect x="302.16" y="144.48" class="st0" width="71.68" height="13.41"/>
<line class="st0" x1="11.5" y1="171.3" x2="11.5" y2="157.89"/>
<line class="st0" x1="94.61" y1="157.89" x2="94.61" y2="171.3"/>
<rect x="94.61" y="157.89" class="st0" width="124.2" height="13.41"/>
<rect x="218.8" y="157.89" class="st0" width="83.35" height="13.41"/>
<rect x="302.16" y="157.89" class="st0" width="71.68" height="13.41"/>
<line class="st0" x1="11.5" y1="184.7" x2="11.5" y2="171.3"/>
<line class="st0" x1="94.61" y1="171.3" x2="94.61" y2="184.7"/>
<rect x="94.61" y="171.3" class="st0" width="124.2" height="13.41"/>
<rect x="218.8" y="171.3" class="st0" width="83.35" height="13.41"/>
<rect x="302.16" y="171.3" class="st0" width="71.68" height="13.41"/>
<line class="st0" x1="11.5" y1="198.11" x2="11.5" y2="184.7"/>
<line class="st0" x1="94.61" y1="184.7" x2="94.61" y2="198.11"/>
<rect x="94.61" y="184.7" class="st0" width="124.2" height="13.41"/>
<rect x="218.8" y="184.7" class="st0" width="83.35" height="13.41"/>
<rect x="302.16" y="184.7" class="st0" width="71.68" height="13.41"/>
<line class="st0" x1="11.5" y1="211.52" x2="11.5" y2="198.11"/>
<line class="st0" x1="94.61" y1="198.11" x2="94.61" y2="211.52"/>
<rect x="94.61" y="198.11" class="st0" width="124.2" height="13.41"/>
<rect x="218.8" y="198.11" class="st0" width="83.35" height="13.41"/>
<rect x="302.16" y="198.11" class="st0" width="71.68" height="13.41"/>
<line class="st0" x1="11.5" y1="224.93" x2="11.5" y2="211.52"/>
<line class="st0" x1="94.61" y1="211.52" x2="94.61" y2="224.93"/>
<rect x="94.61" y="211.52" class="st0" width="124.2" height="13.41"/>
<rect x="218.8" y="211.52" class="st0" width="83.35" height="13.41"/>
<rect x="302.16" y="211.52" class="st0" width="71.68" height="13.41"/>
<line class="st0" x1="11.5" y1="238.34" x2="11.5" y2="224.93"/>
<line class="st0" x1="94.61" y1="224.93" x2="94.61" y2="238.34"/>
<rect x="94.61" y="224.93" class="st0" width="124.2" height="13.41"/>
<rect x="218.8" y="224.93" class="st0" width="83.35" height="13.41"/>
<rect x="302.16" y="224.93" class="st0" width="71.68" height="13.41"/>
<line class="st0" x1="11.5" y1="251.75" x2="11.5" y2="238.34"/>
<line class="st0" x1="94.61" y1="238.34" x2="94.61" y2="251.75"/>
<rect x="94.61" y="238.34" class="st0" width="124.2" height="13.41"/>
<rect x="218.8" y="238.34" class="st0" width="83.35" height="13.41"/>
<rect x="302.16" y="238.34" class="st0" width="71.68" height="13.41"/>
<line class="st0" x1="11.5" y1="265.15" x2="11.5" y2="251.75"/>
<line class="st0" x1="94.61" y1="251.75" x2="94.61" y2="265.15"/>
<rect x="94.61" y="251.75" class="st0" width="124.2" height="13.41"/>
<rect x="218.8" y="251.75" class="st0" width="83.35" height="13.41"/>
<rect x="302.16" y="251.75" class="st0" width="71.68" height="13.41"/>
<line class="st0" x1="11.5" y1="278.56" x2="11.5" y2="265.15"/>
<line class="st0" x1="94.61" y1="265.15" x2="94.61" y2="278.56"/>
<rect x="94.61" y="265.15" class="st0" width="124.2" height="13.41"/>
<rect x="218.8" y="265.15" class="st0" width="83.35" height="13.41"/>
<rect x="302.16" y="265.15" class="st0" width="71.68" height="13.41"/>
<line class="st0" x1="11.5" y1="291.97" x2="11.5" y2="278.56"/>
<line class="st0" x1="94.61" y1="278.56" x2="94.61" y2="291.97"/>
<rect x="94.61" y="278.56" class="st0" width="124.2" height="13.41"/>
<rect x="218.8" y="278.56" class="st0" width="83.35" height="13.41"/>
<rect x="302.16" y="278.56" class="st0" width="71.68" height="13.41"/>
<line class="st0" x1="11.5" y1="305.38" x2="11.5" y2="291.97"/>
<line class="st0" x1="94.61" y1="291.97" x2="94.61" y2="305.38"/>
<rect x="94.61" y="291.97" class="st0" width="124.2" height="13.41"/>
<rect x="218.8" y="291.97" class="st0" width="83.35" height="13.41"/>
<rect x="302.16" y="291.97" class="st0" width="71.68" height="13.41"/>
<line class="st0" x1="11.5" y1="318.79" x2="11.5" y2="305.38"/>
<line class="st0" x1="94.61" y1="305.38" x2="94.61" y2="318.79"/>
<rect x="94.61" y="305.38" class="st0" width="124.2" height="13.41"/>
<rect x="218.8" y="305.38" class="st0" width="83.35" height="13.41"/>
<rect x="302.16" y="305.38" class="st0" width="71.68" height="13.41"/>
<polyline class="st0" points="94.61,318.79 94.61,332.2 11.5,332.2 11.5,318.79 "/>
<rect x="94.61" y="318.79" class="st0" width="124.2" height="13.41"/>
<rect x="218.8" y="318.79" class="st0" width="83.35" height="13.41"/>
<rect x="302.16" y="318.79" class="st0" width="71.68" height="13.41"/>
<line class="st0" x1="11.5" y1="345.61" x2="11.5" y2="332.2"/>
<line class="st0" x1="94.61" y1="332.2" x2="94.61" y2="345.61"/>
<rect x="94.61" y="332.2" class="st0" width="124.2" height="13.41"/>
<rect x="218.8" y="332.2" class="st0" width="83.35" height="13.41"/>
<rect x="302.16" y="332.2" class="st0" width="71.68" height="13.41"/>
<line class="st0" x1="11.5" y1="359.01" x2="11.5" y2="345.61"/>
<line class="st0" x1="94.61" y1="345.61" x2="94.61" y2="359.01"/>
<rect x="94.61" y="345.61" class="st0" width="124.2" height="13.41"/>
<rect x="218.8" y="345.61" class="st0" width="83.35" height="13.41"/>
<rect x="302.16" y="345.61" class="st0" width="71.68" height="13.41"/>
<line class="st0" x1="11.5" y1="372.42" x2="11.5" y2="359.01"/>
<line class="st0" x1="94.61" y1="359.01" x2="94.61" y2="372.42"/>
<rect x="94.61" y="359.01" class="st0" width="124.2" height="13.41"/>
<rect x="218.8" y="359.01" class="st0" width="83.35" height="13.41"/>
<rect x="302.16" y="359.01" class="st0" width="71.68" height="13.41"/>
<line class="st0" x1="11.5" y1="385.83" x2="11.5" y2="372.42"/>
<line class="st0" x1="94.61" y1="372.42" x2="94.61" y2="385.83"/>
<rect x="94.61" y="372.42" class="st0" width="124.2" height="13.41"/>
<rect x="218.8" y="372.42" class="st0" width="83.35" height="13.41"/>
<rect x="302.16" y="372.42" class="st0" width="71.68" height="13.41"/>
<polyline class="st0" points="94.61,385.83 94.61,399.24 11.5,399.24 11.5,385.83 "/>
<rect x="94.61" y="385.83" class="st0" width="124.2" height="13.41"/>
<rect x="218.8" y="385.83" class="st0" width="83.35" height="13.41"/>
<rect x="302.16" y="385.83" class="st0" width="71.68" height="13.41"/>
<rect x="11.5" y="10.39" class="st1" width="362.34" height="388.85"/>
<text transform="matrix(1 0 0 1 30.3779 20.7262)"><tspan x="0" y="0" class="st2 st3">役　　職</tspan><tspan x="0" y="13.44" class="st2 st3">顧　　問</tspan><tspan x="0" y="26.87" class="st2 st3">名誉会長</tspan><tspan x="0" y="40.31" class="st2 st3">会　　長</tspan><tspan x="0" y="73.53" class="st2 st3">副 会 長</tspan><tspan x="0" y="201.54" class="st2 st3">委　　員</tspan><tspan x="0" y="349.34" class="st2 st3">事 務 局</tspan></text>
<text transform="matrix(1 0 0 1 122.6887 20.7262)"><tspan x="0" y="0" class="st2 st3">氏　　　　名</tspan><tspan x="-5.67" y="13.44" class="st2 st3">畠　井　丈　志</tspan><tspan x="-5.67" y="26.87" class="st2 st3">南　雲　康　司</tspan><tspan x="-5.67" y="40.31" class="st2 st3">大　貫　茂　男</tspan><tspan x="-5.67" y="53.74" class="st2 st3">有　田　和　義</tspan><tspan x="-5.67" y="67.18" class="st2 st3">長　友　進　一</tspan><tspan x="-5.67" y="80.62" class="st2 st3">菊　池　　　敏</tspan><tspan x="-5.67" y="94.05" class="st2 st3">石　山　　　淳</tspan><tspan x="-5.67" y="107.49" class="st2 st3">梅　澤　　　勉</tspan><tspan x="-5.67" y="120.93" class="st2 st3">川　上　昌　紀</tspan><tspan x="-5.67" y="134.36" class="st2 st3">島　方　恵　子</tspan><tspan x="-5.67" y="147.8" class="st2 st3">関　根　八千代</tspan><tspan x="-5.67" y="161.23" class="st2 st3">米　川　英　一</tspan><tspan x="-5.67" y="174.67" class="st2 st3">檜　山　英　洋</tspan><tspan x="-5.67" y="188.11" class="st2 st3">荻　谷　仁　樹</tspan><tspan x="-5.67" y="201.54" class="st2 st3">梶　間　隆　弘</tspan><tspan x="-5.67" y="214.98" class="st2 st3">大　川　裕　司</tspan><tspan x="-5.67" y="228.42" class="st2 st3">海老沢　　　稔</tspan><tspan x="-5.67" y="241.85" class="st2 st3">冨　岡　智　子</tspan><tspan x="-5.67" y="255.29" class="st2 st3">竹　田　晋　哉</tspan><tspan x="-5.67" y="268.72" class="st2 st3">高　柳　成　人</tspan><tspan x="-5.67" y="282.16" class="st2 st3">皆　川　哲　治</tspan><tspan x="-5.67" y="295.6" class="st2 st3">小　沼　敏　夫</tspan><tspan x="-5.67" y="309.03" class="st2 st3">二階堂　　　均</tspan><tspan x="-5.67" y="322.47" class="st2 st3">石　山　　　淳</tspan><tspan x="-5.67" y="335.91" class="st2 st3">藤　﨑　正　輝</tspan><tspan x="-5.67" y="349.34" class="st2 st3">郡　司　みどり</tspan><tspan x="-5.67" y="362.78" class="st2 st3">有　國　淨　光</tspan><tspan x="-5.67" y="376.21" class="st2 st3">秋　元　喬　知</tspan></text>
<text transform="matrix(1 0 0 1 243.4714 20.7262)"><tspan x="0" y="0" class="st2 st3">卒業回</tspan><tspan x="14.17" y="13.44" class="st2 st3">-</tspan><tspan x="14.17" y="26.87" class="st2 st3">-</tspan><tspan x="2.83" y="40.31" class="st2 st3">6回生</tspan><tspan x="2.83" y="53.74" class="st2 st3">4回生</tspan><tspan x="2.83" y="67.18" class="st2 st3">6回生</tspan><tspan x="2.83" y="80.62" class="st2 st3">7回生</tspan><tspan x="2.83" y="94.05" class="st2 st3">8回生</tspan><tspan x="2.83" y="107.49" class="st2 st3">5回生</tspan><tspan x="2.83" y="120.93" class="st2 st3">5回生</tspan><tspan x="2.83" y="134.36" class="st2 st3">5回生</tspan><tspan x="2.83" y="147.8" class="st2 st3">5回生</tspan><tspan x="2.83" y="161.23" class="st2 st3">7回生</tspan><tspan x="2.83" y="174.67" class="st2 st3">8回生</tspan><tspan x="2.83" y="188.11" class="st2 st3">8回生</tspan><tspan x="2.83" y="201.54" class="st2 st3">9回生</tspan><tspan x="0" y="214.98" class="st2 st3">10回生</tspan><tspan x="0" y="228.42" class="st2 st3">10回生</tspan><tspan x="0" y="241.85" class="st2 st3">10回生</tspan><tspan x="0" y="255.29" class="st2 st3">11回生</tspan><tspan x="0" y="268.72" class="st2 st3">12回生</tspan><tspan x="0" y="282.16" class="st2 st3">12回生</tspan><tspan x="0" y="295.6" class="st2 st3">13回生</tspan><tspan x="0" y="309.03" class="st2 st3">13回生</tspan><tspan x="2.83" y="322.47" class="st2 st3">8回生</tspan><tspan x="-5.67" y="335.91" class="st2 st3">学校教頭</tspan><tspan x="-17.01" y="349.34" class="st2 st3">学校事務局長</tspan><tspan x="-5.67" y="362.78" class="st2 st3">学校職員</tspan><tspan x="-5.67" y="376.21" class="st2 st3">学校職員</tspan></text>
<text transform="matrix(1 0 0 1 326.6602 20.7262)"><tspan x="0" y="0" class="st2 st3">備考</tspan><tspan x="-11.34" y="13.44" class="st2 st3">初代会長</tspan><tspan x="-11.34" y="26.87" class="st2 st3">校　　長</tspan><tspan x="-17.01" y="40.31" class="st2 st3">長峯会会長</tspan><tspan x="-22.68" y="53.74" class="st2 st3">長峯会副会長</tspan><tspan x="-22.68" y="67.18" class="st2 st3">後援会理事長</tspan><tspan x="-22.68" y="80.62" class="st2 st3">長峯会副会長</tspan><tspan x="-17.01" y="94.05" class="st2 st3">長峯会監事</tspan><tspan x="-17.01" y="120.93" class="st2 st3">長峯会会計</tspan><tspan x="-17.01" y="282.16" class="st2 st3">長峯会監事</tspan><tspan x="-17.01" y="322.47" class="st2 st3">長峯会監事</tspan><tspan x="-17.01" y="349.34" class="st2 st3">長峯会会計</tspan><tspan x="-17.01" y="362.78" class="st2 st3">長峯会書記</tspan></text>
</svg>
