<?xml version="1.0" encoding="utf-8"?>
<!-- Generator: Adobe Illustrator 26.5.0, SVG Export Plug-In . SVG Version: 6.00 Build 0)  -->
<svg version="1.1" id="レイヤー_1" xmlns="http://www.w3.org/2000/svg" xmlns:xlink="http://www.w3.org/1999/xlink" x="0px"
	 y="0px" viewBox="0 0 369.67 167.26" style="enable-background:new 0 0 369.67 167.26;" xml:space="preserve">
<style type="text/css">
	.st0{fill:none;stroke:#000000;stroke-width:0.1417;stroke-miterlimit:10;}
	.st1{fill:none;stroke:#000000;stroke-width:0.4252;stroke-miterlimit:10;}
	.st2{font-family:'MS-Mincho';}
	.st3{font-size:9.9213px;}
</style>
<rect x="10.42" y="6.11" class="st0" width="61.68" height="11.9"/>
<rect x="72.1" y="6.11" class="st0" width="138.37" height="11.9"/>
<rect x="210.47" y="6.11" class="st0" width="46.83" height="11.9"/>
<rect x="257.3" y="6.11" class="st0" width="36.52" height="11.9"/>
<rect x="293.82" y="6.11" class="st0" width="64.32" height="11.9"/>
<rect x="10.42" y="18.02" class="st0" width="61.68" height="11.9"/>
<rect x="72.1" y="18.02" class="st0" width="138.37" height="11.9"/>
<rect x="210.47" y="18.02" class="st0" width="46.83" height="11.9"/>
<rect x="257.3" y="18.02" class="st0" width="36.52" height="11.9"/>
<rect x="293.82" y="18.02" class="st0" width="64.32" height="11.9"/>
<polyline class="st0" points="10.42,41.83 10.42,29.92 72.1,29.92 72.1,41.83 "/>
<rect x="72.1" y="29.92" class="st0" width="138.37" height="11.9"/>
<rect x="210.47" y="29.92" class="st0" width="46.83" height="11.9"/>
<rect x="257.3" y="29.92" class="st0" width="36.52" height="11.9"/>
<rect x="293.82" y="29.92" class="st0" width="64.32" height="11.9"/>
<line class="st0" x1="10.42" y1="53.73" x2="10.42" y2="41.83"/>
<line class="st0" x1="72.1" y1="41.83" x2="72.1" y2="53.73"/>
<rect x="72.1" y="41.83" class="st0" width="138.37" height="11.9"/>
<rect x="210.47" y="41.83" class="st0" width="46.83" height="11.9"/>
<rect x="257.3" y="41.83" class="st0" width="36.52" height="11.9"/>
<rect x="293.82" y="41.83" class="st0" width="64.32" height="11.9"/>
<polyline class="st0" points="72.1,53.73 72.1,65.64 10.42,65.64 10.42,53.73 "/>
<rect x="72.1" y="53.73" class="st0" width="138.37" height="11.9"/>
<rect x="210.47" y="53.73" class="st0" width="46.83" height="11.9"/>
<rect x="257.3" y="53.73" class="st0" width="36.52" height="11.9"/>
<rect x="293.82" y="53.73" class="st0" width="64.32" height="11.9"/>
<polyline class="st0" points="10.42,77.54 10.42,65.64 72.1,65.64 72.1,77.54 "/>
<rect x="72.1" y="65.64" class="st0" width="138.37" height="11.9"/>
<rect x="210.47" y="65.64" class="st0" width="46.83" height="11.9"/>
<rect x="257.3" y="65.64" class="st0" width="36.52" height="11.9"/>
<rect x="293.82" y="65.64" class="st0" width="64.32" height="11.9"/>
<polyline class="st0" points="72.1,77.54 72.1,89.44 10.42,89.44 10.42,77.54 "/>
<rect x="72.1" y="77.54" class="st0" width="138.37" height="11.9"/>
<rect x="210.47" y="77.54" class="st0" width="46.83" height="11.9"/>
<rect x="257.3" y="77.54" class="st0" width="36.52" height="11.9"/>
<rect x="293.82" y="77.54" class="st0" width="64.32" height="11.9"/>
<polyline class="st0" points="10.42,101.35 10.42,89.44 72.1,89.44 72.1,101.35 "/>
<rect x="72.1" y="89.44" class="st0" width="138.37" height="11.9"/>
<rect x="210.47" y="89.44" class="st0" width="46.83" height="11.9"/>
<rect x="257.3" y="89.44" class="st0" width="36.52" height="11.9"/>
<rect x="293.82" y="89.44" class="st0" width="64.32" height="11.9"/>
<polyline class="st0" points="72.1,101.35 72.1,113.25 10.42,113.25 10.42,101.35 "/>
<rect x="72.1" y="101.35" class="st0" width="138.37" height="11.9"/>
<rect x="210.47" y="101.35" class="st0" width="46.83" height="11.9"/>
<rect x="257.3" y="101.35" class="st0" width="36.52" height="11.9"/>
<rect x="293.82" y="101.35" class="st0" width="64.32" height="11.9"/>
<polyline class="st0" points="10.42,125.16 10.42,113.25 72.1,113.25 72.1,125.16 "/>
<rect x="72.1" y="113.25" class="st0" width="138.37" height="11.9"/>
<rect x="210.47" y="113.25" class="st0" width="46.83" height="11.9"/>
<rect x="257.3" y="113.25" class="st0" width="36.52" height="11.9"/>
<rect x="293.82" y="113.25" class="st0" width="64.32" height="11.9"/>
<polyline class="st0" points="72.1,125.16 72.1,137.06 10.42,137.06 10.42,125.16 "/>
<rect x="72.1" y="125.16" class="st0" width="138.37" height="11.9"/>
<rect x="210.47" y="125.16" class="st0" width="46.83" height="11.9"/>
<rect x="257.3" y="125.16" class="st0" width="36.52" height="11.9"/>
<rect x="293.82" y="125.16" class="st0" width="64.32" height="11.9"/>
<rect x="10.42" y="137.06" class="st0" width="61.68" height="11.9"/>
<rect x="72.1" y="137.06" class="st0" width="138.37" height="11.9"/>
<rect x="210.47" y="137.06" class="st0" width="46.83" height="11.9"/>
<rect x="257.3" y="137.06" class="st0" width="36.52" height="11.9"/>
<rect x="293.82" y="137.06" class="st0" width="64.32" height="11.9"/>
<rect x="10.42" y="148.97" class="st0" width="61.68" height="11.9"/>
<rect x="72.1" y="148.97" class="st0" width="138.37" height="11.9"/>
<rect x="210.47" y="148.97" class="st0" width="46.83" height="11.9"/>
<rect x="257.3" y="148.97" class="st0" width="36.52" height="11.9"/>
<rect x="293.82" y="148.97" class="st0" width="64.32" height="11.9"/>
<line class="st0" x1="10.42" y1="18.48" x2="358.14" y2="18.48"/>
<rect x="10.42" y="6.11" class="st1" width="347.72" height="154.76"/>
<text transform="matrix(1 0 0 1 26.3781 15.7827)"><tspan x="0" y="0" class="st2 st3">役　職</tspan><tspan x="0" y="11.91" class="st2 st3">会　長</tspan><tspan x="0" y="35.72" class="st2 st3">副会長</tspan><tspan x="0" y="65.76" class="st2 st3">書　記</tspan><tspan x="0" y="89.57" class="st2 st3">会　計</tspan><tspan x="-4.96" y="113.39" class="st2 st3">会計監事</tspan><tspan x="0" y="130.96" class="st2 st3">顧　問</tspan><tspan x="-4.96" y="142.87" class="st2 st3">名誉会長</tspan></text>
<text transform="matrix(1 0 0 1 111.52 15.7827)"><tspan x="0" y="0" class="st2 st3">氏　　　　名</tspan><tspan x="-4.96" y="11.91" class="st2 st3">大　貫　茂　男</tspan><tspan x="-4.96" y="23.81" class="st2 st3">有　田　和　義</tspan><tspan x="-4.96" y="35.72" class="st2 st3">菊　池　　　敏</tspan><tspan x="-4.96" y="47.62" class="st2 st3">藤　﨑　正　輝</tspan><tspan x="-4.96" y="59.53" class="st2 st3">竹　田　晋　哉</tspan><tspan x="-4.96" y="71.43" class="st2 st3">有　國　淨　光</tspan><tspan x="-4.96" y="83.34" class="st2 st3">川　上　昌　紀</tspan><tspan x="-4.96" y="95.24" class="st2 st3">郡　司　みどり</tspan><tspan x="-4.96" y="107.15" class="st2 st3">石　山　　　淳</tspan><tspan x="-4.96" y="119.06" class="st2 st3">皆　川　哲　治</tspan><tspan x="-4.96" y="130.96" class="st2 st3">畠　井　丈　志</tspan><tspan x="-4.96" y="142.87" class="st2 st3">南　雲　康　司</tspan></text>
<text transform="matrix(1 0 0 1 219.0005 15.7827)"><tspan x="0" y="0" class="st2 st3">卒業回</tspan><tspan x="2.48" y="11.91" class="st2 st3">6回生</tspan><tspan x="2.48" y="23.81" class="st2 st3">4回生</tspan><tspan x="2.48" y="35.72" class="st2 st3">7回生</tspan><tspan x="12.4" y="47.62" class="st2 st3">-</tspan><tspan x="0" y="59.53" class="st2 st3">11回生</tspan><tspan x="12.4" y="71.43" class="st2 st3">-</tspan><tspan x="2.48" y="83.34" class="st2 st3">5回生</tspan><tspan x="12.4" y="95.24" class="st2 st3">-</tspan><tspan x="2.48" y="107.15" class="st2 st3">8回生</tspan><tspan x="0" y="119.06" class="st2 st3">12回生</tspan><tspan x="12.4" y="130.96" class="st2 st3">-</tspan><tspan x="12.4" y="142.87" class="st2 st3">-</tspan></text>
<text transform="matrix(1 0 0 1 265.8933 15.7827)"><tspan x="0" y="0" class="st2 st3">新留</tspan><tspan x="0" y="11.91" class="st2 st3">留任</tspan><tspan x="0" y="23.81" class="st2 st3">留任</tspan><tspan x="0" y="35.72" class="st2 st3">留任</tspan><tspan x="0" y="47.62" class="st2 st3">留任</tspan><tspan x="0" y="59.53" class="st2 st3">留任</tspan><tspan x="0" y="71.43" class="st2 st3">留任</tspan><tspan x="0" y="83.34" class="st2 st3">留任</tspan><tspan x="0" y="95.24" class="st2 st3">新任</tspan><tspan x="0" y="107.15" class="st2 st3">留任</tspan><tspan x="0" y="119.06" class="st2 st3">留任</tspan><tspan x="0" y="130.96" class="st2 st3">留任</tspan><tspan x="0" y="142.87" class="st2 st3">留任</tspan></text>
<text transform="matrix(1 0 0 1 311.0996 15.7831)"><tspan x="0" y="0" class="st2 st3">備　考</tspan><tspan x="0" y="47.62" class="st2 st3">教　頭</tspan><tspan x="-4.96" y="71.43" class="st2 st3">学校職員</tspan><tspan x="-9.92" y="95.24" class="st2 st3">学校事務長</tspan><tspan x="-4.96" y="130.96" class="st2 st3">初代会長</tspan><tspan x="0" y="142.87" class="st2 st3">校　長</tspan></text>
</svg>
